<?xml version="1.0" encoding="utf-8"?>
<!-- Generator: Adobe Illustrator 16.0.3, SVG Export Plug-In . SVG Version: 6.00 Build 0)  -->
<!DOCTYPE svg PUBLIC "-//W3C//DTD SVG 1.1//EN" "http://www.w3.org/Graphics/SVG/1.1/DTD/svg11.dtd">
<svg version="1.1" id="Layer_1" xmlns="http://www.w3.org/2000/svg" xmlns:xlink="http://www.w3.org/1999/xlink" x="0px" y="0px"
	 width="125.09px" height="30.544px" viewBox="0 0 125.09 30.544" enable-background="new 0 0 125.09 30.544" xml:space="preserve">
<g>
	<path fill="#FFFFFF" d="M49.542,11.238c-0.215-0.229-0.507-0.394-0.875-0.486c-0.365-0.094-0.828-0.141-1.389-0.141h-4.979
		c-0.559,0-1.024,0.047-1.392,0.141c-0.365,0.093-0.655,0.257-0.87,0.486c-0.218,0.229-0.37,0.53-0.454,0.905
		c-0.086,0.371-0.131,0.849-0.131,1.422v3.449c0,0.575,0.044,1.053,0.131,1.432c0.084,0.384,0.236,0.683,0.454,0.907
		c0.215,0.223,0.505,0.379,0.87,0.473c0.367,0.094,0.833,0.14,1.392,0.14h4.979c0.561,0,1.024-0.046,1.389-0.14
		c0.367-0.094,0.659-0.25,0.875-0.473c0.215-0.225,0.365-0.523,0.451-0.907c0.087-0.379,0.129-0.856,0.129-1.432v-3.449
		c0-0.573-0.042-1.051-0.129-1.422C49.906,11.769,49.757,11.467,49.542,11.238z"/>
	<path fill="#FFFFFF" d="M29.99,11.238c-0.215-0.229-0.505-0.394-0.87-0.486c-0.37-0.094-0.833-0.141-1.392-0.141h-4.979
		c-0.562,0-1.024,0.047-1.389,0.141c-0.367,0.093-0.66,0.257-0.875,0.486c-0.215,0.229-0.365,0.53-0.451,0.905
		c-0.086,0.371-0.129,0.849-0.129,1.422v3.449c0,0.575,0.042,1.053,0.129,1.432c0.086,0.384,0.236,0.683,0.451,0.907
		c0.215,0.223,0.508,0.379,0.875,0.473c0.365,0.094,0.828,0.14,1.389,0.14h4.979c0.559,0,1.022-0.046,1.392-0.14
		c0.365-0.094,0.655-0.25,0.87-0.473c0.215-0.225,0.37-0.523,0.454-0.907c0.086-0.379,0.131-0.856,0.131-1.432v-3.449
		c0-0.573-0.044-1.051-0.131-1.422C30.359,11.769,30.205,11.467,29.99,11.238z"/>
	<path fill="#FFFFFF" d="M69.089,11.238c-0.215-0.229-0.505-0.394-0.87-0.486c-0.37-0.094-0.833-0.141-1.392-0.141h-4.979
		c-0.562,0-1.024,0.047-1.389,0.141c-0.367,0.093-0.66,0.257-0.875,0.486c-0.215,0.229-0.365,0.53-0.451,0.905
		c-0.087,0.371-0.129,0.849-0.129,1.422v3.449c0,0.575,0.042,1.053,0.129,1.432c0.086,0.384,0.236,0.683,0.451,0.907
		c0.215,0.223,0.508,0.379,0.875,0.473c0.365,0.094,0.828,0.14,1.389,0.14h4.979c0.559,0,1.022-0.046,1.392-0.14
		c0.365-0.094,0.655-0.25,0.87-0.473c0.215-0.225,0.369-0.523,0.454-0.907c0.086-0.379,0.131-0.856,0.131-1.432v-3.449
		c0-0.573-0.044-1.051-0.131-1.422C69.458,11.769,69.304,11.467,69.089,11.238z"/>
	<path fill="#FFFFFF" d="M0,0v30.544h125.09V0H0z M14.021,22.358c0,0.316-0.159,0.476-0.475,0.476h-2.219
		c-0.318,0-0.475-0.159-0.475-0.476V11.065c0-0.302-0.152-0.454-0.454-0.454H9.17c-0.332,0-0.496-0.156-0.496-0.473V8.221
		c0-0.317,0.164-0.475,0.496-0.475h2.868c0.718,0,1.228,0.147,1.529,0.442s0.454,0.758,0.454,1.389V22.358z M33.764,17.144
		c0,1.036-0.112,1.915-0.336,2.641c-0.222,0.725-0.576,1.314-1.055,1.768c-0.482,0.451-1.102,0.779-1.864,0.98
		c-0.762,0.201-1.688,0.302-2.781,0.302h-4.979c-1.092,0-2.021-0.101-2.781-0.302c-0.76-0.201-1.382-0.529-1.864-0.98
		c-0.481-0.453-0.833-1.043-1.057-1.768c-0.222-0.726-0.332-1.604-0.332-2.641v-3.707c0-1.034,0.11-1.911,0.332-2.629
		c0.225-0.72,0.576-1.305,1.057-1.759c0.482-0.451,1.104-0.781,1.864-0.991c0.76-0.206,1.688-0.312,2.781-0.312h4.979
		c1.092,0,2.019,0.105,2.781,0.312c0.763,0.21,1.382,0.54,1.864,0.991c0.479,0.454,0.833,1.039,1.055,1.759
		c0.225,0.718,0.336,1.595,0.336,2.629V17.144z M53.312,17.144c0,1.036-0.112,1.915-0.332,2.641
		c-0.225,0.725-0.575,1.314-1.057,1.768c-0.482,0.451-1.104,0.779-1.864,0.98c-0.763,0.201-1.689,0.302-2.781,0.302h-4.979
		c-1.092,0-2.018-0.101-2.781-0.302c-0.762-0.201-1.384-0.529-1.864-0.98c-0.482-0.453-0.835-1.043-1.055-1.768
		c-0.225-0.726-0.337-1.604-0.337-2.641v-3.707c0-1.034,0.112-1.911,0.337-2.629c0.22-0.72,0.573-1.305,1.055-1.759
		c0.479-0.451,1.102-0.781,1.864-0.991c0.763-0.206,1.688-0.312,2.781-0.312h4.979c1.092,0,2.018,0.105,2.781,0.312
		c0.76,0.21,1.382,0.54,1.864,0.991c0.482,0.454,0.833,1.039,1.057,1.759c0.22,0.718,0.332,1.595,0.332,2.629V17.144z
		 M72.863,17.144c0,1.036-0.112,1.915-0.336,2.641c-0.222,0.725-0.576,1.314-1.055,1.768c-0.481,0.451-1.102,0.779-1.864,0.98
		s-1.688,0.302-2.781,0.302h-4.979c-1.092,0-2.021-0.101-2.781-0.302c-0.76-0.201-1.382-0.529-1.864-0.98
		c-0.481-0.453-0.833-1.043-1.057-1.768c-0.222-0.726-0.332-1.604-0.332-2.641v-3.707c0-1.034,0.11-1.911,0.332-2.629
		c0.225-0.72,0.576-1.305,1.057-1.759c0.482-0.451,1.104-0.781,1.864-0.991c0.76-0.206,1.688-0.312,2.781-0.312h4.979
		c1.092,0,2.019,0.105,2.781,0.312c0.762,0.21,1.382,0.54,1.864,0.991c0.479,0.454,0.833,1.039,1.055,1.759
		c0.224,0.718,0.336,1.595,0.336,2.629V17.144z M103.878,22.358c0,0.316-0.159,0.476-0.476,0.476h-2.111
		c-0.316,0-0.475-0.159-0.475-0.476v-6.251c0-0.444-0.028-0.821-0.086-1.13c-0.056-0.311-0.164-0.554-0.323-0.731
		c-0.159-0.183-0.381-0.309-0.669-0.389c-0.288-0.079-0.667-0.119-1.141-0.119h-3.793v8.62c0,0.316-0.166,0.476-0.496,0.476h-2.112
		c-0.318,0-0.475-0.159-0.475-0.476v-8.62h-3.665c-0.458,0-0.839,0.04-1.141,0.119c-0.302,0.08-0.542,0.206-0.723,0.389
		c-0.18,0.178-0.306,0.421-0.376,0.731c-0.073,0.309-0.107,0.686-0.107,1.13v6.251c0,0.316-0.159,0.476-0.475,0.476h-2.112
		c-0.332,0-0.496-0.159-0.496-0.476v-6.98c0-0.776,0.086-1.44,0.257-1.995c0.173-0.555,0.458-1.006,0.851-1.359
		c0.397-0.351,0.921-0.61,1.576-0.776C85.963,11.084,86.779,11,87.756,11H98.77c0.961,0,1.771,0.084,2.426,0.247
		c0.652,0.166,1.181,0.426,1.583,0.776c0.402,0.354,0.686,0.805,0.852,1.359s0.248,1.219,0.248,1.995V22.358z M116.832,8.939
		c0,0.783-0.213,1.392-0.634,1.816c-0.421,0.426-1.048,0.642-1.883,0.642h-5.459c-0.498,0-0.748,0.271-0.748,0.818v1.221
		c0,0.201,0.096,0.302,0.287,0.302h8.09c0.22,0,0.33,0.105,0.33,0.315v1.279c0,0.211-0.11,0.316-0.33,0.316h-9.168
		c-0.488,0-0.832-0.099-1.033-0.295s-0.302-0.505-0.302-0.927v-2.212c0-0.795,0.21-1.408,0.632-1.834
		c0.421-0.426,1.05-0.638,1.882-0.638h5.461c0.499,0,0.746-0.27,0.746-0.805v-0.62c0-0.248-0.056-0.446-0.17-0.594
		c-0.117-0.15-0.313-0.225-0.59-0.225h-7.271c-0.21,0-0.315-0.104-0.315-0.315V5.906c0-0.211,0.105-0.316,0.315-0.316h7.615
		c0.872,0,1.514,0.218,1.925,0.648c0.414,0.43,0.62,0.996,0.62,1.692V8.939z"/>
</g>
</svg>
