<?xml version="1.0" encoding="utf-8"?>
<!-- Generator: Adobe Illustrator 16.0.3, SVG Export Plug-In . SVG Version: 6.00 Build 0)  -->
<!DOCTYPE svg PUBLIC "-//W3C//DTD SVG 1.1//EN" "http://www.w3.org/Graphics/SVG/1.1/DTD/svg11.dtd">
<svg version="1.1" id="Layer_1" xmlns="http://www.w3.org/2000/svg" xmlns:xlink="http://www.w3.org/1999/xlink" x="0px" y="0px"
	 width="160.422px" height="39.9px" viewBox="0 0 160.422 39.9" enable-background="new 0 0 160.422 39.9" xml:space="preserve">
<g>
	<path fill="#FFFFFF" d="M70.891,16.65h-6.186c-1.066,0-1.785,0.171-2.154,0.508c-0.369,0.337-0.556,0.898-0.556,1.684v0.668h9.979
		c0.281,0,0.419-0.139,0.419-0.42v-1.034c0-0.508-0.107-0.872-0.321-1.085C71.858,16.757,71.462,16.65,70.891,16.65z"/>
	<path fill="#FFFFFF" d="M30.724,22.033c-0.206,0.206-0.308,0.505-0.308,0.898v0.519c0,0.443,0.102,0.77,0.308,0.973
		c0.206,0.206,0.564,0.308,1.072,0.308h8.302c0.262,0,0.446-0.062,0.553-0.185s0.161-0.342,0.161-0.652v-2.167h-9.016
		C31.288,21.726,30.929,21.83,30.724,22.033z"/>
	<path fill="#FFFFFF" d="M102.395,16.65h-6.18c-1.069,0-1.788,0.171-2.157,0.508c-0.371,0.337-0.553,0.898-0.553,1.684v0.668h9.976
		c0.278,0,0.417-0.139,0.417-0.42v-1.034c0-0.508-0.107-0.872-0.318-1.085C103.365,16.757,102.972,16.65,102.395,16.65z"/>
	<path fill="#FFFFFF" d="M0,0v39.9h160.422V0H0z M65.149,12.464l2.243-4.56c0.179-0.374,0.436-0.566,0.762-0.566h2.17
		c0.179,0,0.31,0.051,0.393,0.149c0.083,0.099,0.072,0.238-0.024,0.417l-2.54,4.56c-0.096,0.182-0.2,0.321-0.305,0.417
		c-0.107,0.099-0.251,0.15-0.433,0.15h-1.871c-0.182,0-0.313-0.051-0.396-0.15C65.069,12.785,65.069,12.646,65.149,12.464z
		 M25.193,16.431c0,0.294-0.147,0.444-0.444,0.444h-9.559c-0.54,0-0.984,0.043-1.331,0.134c-0.342,0.091-0.615,0.238-0.813,0.443
		c-0.195,0.206-0.336,0.484-0.417,0.839c-0.083,0.353-0.123,0.781-0.123,1.291v2.195c0,0.524,0.04,0.957,0.123,1.304
		c0.081,0.345,0.222,0.62,0.417,0.823c0.198,0.208,0.471,0.353,0.813,0.444c0.347,0.091,0.791,0.136,1.331,0.136h9.559
		c0.296,0,0.444,0.147,0.444,0.444v2.069c0,0.297-0.147,0.444-0.444,0.444h-9.901c-1.117,0-2.05-0.088-2.796-0.27
		c-0.749-0.182-1.347-0.473-1.802-0.877c-0.449-0.401-0.775-0.919-0.973-1.55c-0.195-0.631-0.294-1.393-0.294-2.277v-3.55
		c0-0.887,0.099-1.646,0.294-2.277c0.198-0.631,0.524-1.149,0.973-1.553c0.455-0.404,1.053-0.698,1.802-0.885
		c0.746-0.19,1.679-0.284,2.796-0.284h9.901c0.296,0,0.444,0.145,0.444,0.444V16.431z M44.334,25.471
		c0,0.393-0.029,0.716-0.088,0.973c-0.056,0.254-0.155,0.455-0.294,0.604c-0.139,0.147-0.326,0.251-0.556,0.305
		c-0.229,0.059-0.524,0.088-0.885,0.088H30.785c-0.722,0-1.326-0.069-1.813-0.211c-0.481-0.139-0.871-0.347-1.168-0.625
		c-0.297-0.278-0.505-0.641-0.628-1.085c-0.123-0.444-0.184-0.968-0.184-1.577V22.76c0-0.508,0.062-0.965,0.184-1.368
		c0.123-0.401,0.332-0.743,0.628-1.021c0.297-0.278,0.687-0.486,1.168-0.628c0.486-0.139,1.091-0.211,1.813-0.211h10.026v-0.465
		c0-0.396-0.04-0.732-0.123-1.01c-0.083-0.278-0.222-0.505-0.419-0.679c-0.198-0.171-0.468-0.299-0.813-0.379
		c-0.345-0.085-0.789-0.123-1.331-0.123H27.829c-0.294,0-0.444-0.15-0.444-0.444v-2.069c0-0.299,0.15-0.444,0.444-0.444h10.644
		c1.099,0,2.026,0.094,2.783,0.284c0.756,0.187,1.357,0.481,1.81,0.885c0.452,0.403,0.775,0.922,0.973,1.553s0.297,1.39,0.297,2.277
		V25.471z M57.044,10.962c0,0.294-0.149,0.444-0.444,0.444h-2.39c-0.804,0-1.353,0.16-1.638,0.479
		c-0.286,0.32-0.431,0.826-0.431,1.515v0.519h4.312c0.297,0,0.441,0.145,0.441,0.444v2.018c0,0.297-0.145,0.444-0.441,0.444h-4.312
		v10.075c0,0.363-0.182,0.542-0.542,0.542h-2.414c-0.361,0-0.54-0.179-0.54-0.542V16.824h-2.368c-0.294,0-0.444-0.147-0.444-0.444
		v-2.018c0-0.299,0.15-0.444,0.444-0.444h2.368v-0.519c0-0.871,0.072-1.614,0.219-2.229c0.149-0.615,0.412-1.123,0.789-1.516
		s0.887-0.687,1.526-0.874c0.641-0.187,1.454-0.283,2.44-0.283h2.98c0.294,0,0.444,0.147,0.444,0.443V10.962z M75.841,20.296
		c0,0.527-0.115,0.893-0.345,1.096c-0.23,0.208-0.585,0.31-1.061,0.31h-12.44v0.59c0,0.772,0.188,1.329,0.556,1.676
		c0.369,0.342,1.088,0.516,2.154,0.516H74.98c0.294,0,0.441,0.147,0.441,0.444v2.069c0,0.297-0.147,0.444-0.441,0.444H64.363
		c-1.118,0-2.05-0.088-2.799-0.27c-0.746-0.182-1.344-0.473-1.799-0.877c-0.449-0.401-0.775-0.919-0.973-1.55
		s-0.294-1.393-0.294-2.277v-3.55c0-0.887,0.096-1.646,0.294-2.277s0.524-1.149,0.973-1.553c0.455-0.404,1.053-0.698,1.799-0.885
		c0.749-0.19,1.681-0.284,2.799-0.284h7.217c0.837,0,1.529,0.07,2.08,0.208c0.551,0.139,0.986,0.369,1.307,0.69
		c0.318,0.321,0.545,0.738,0.676,1.256c0.134,0.519,0.198,1.144,0.198,1.884V20.296z M88.551,26.997
		c0,0.297-0.147,0.444-0.443,0.444h-2.98c-0.984,0-1.799-0.088-2.438-0.27c-0.641-0.182-1.155-0.471-1.54-0.863
		c-0.388-0.393-0.652-0.904-0.802-1.526c-0.15-0.625-0.222-1.374-0.222-2.243v-5.715h-2.339c-0.297,0-0.444-0.147-0.444-0.444
		v-2.018c0-0.299,0.147-0.444,0.444-0.444h2.339v-3.253c0-0.361,0.179-0.542,0.542-0.542h2.438c0.364,0,0.543,0.182,0.543,0.542
		v3.253h4.312c0.294,0,0.443,0.145,0.443,0.444v2.018c0,0.297-0.149,0.444-0.443,0.444h-4.312v5.715
		c0,0.689,0.139,1.195,0.419,1.516c0.278,0.321,0.829,0.481,1.649,0.481h2.39c0.296,0,0.443,0.147,0.443,0.444V26.997z
		 M107.348,20.296c0,0.527-0.115,0.893-0.345,1.096c-0.229,0.208-0.583,0.31-1.058,0.31h-12.44v0.59
		c0,0.772,0.182,1.329,0.553,1.676c0.369,0.342,1.088,0.516,2.157,0.516h10.27c0.297,0,0.444,0.147,0.444,0.444v2.069
		c0,0.297-0.147,0.444-0.444,0.444H95.867c-1.118,0-2.048-0.088-2.796-0.27c-0.748-0.182-1.347-0.473-1.796-0.877
		c-0.455-0.401-0.778-0.919-0.973-1.55c-0.198-0.631-0.296-1.393-0.296-2.277v-3.55c0-0.887,0.099-1.646,0.296-2.277
		c0.195-0.631,0.519-1.149,0.973-1.553c0.449-0.404,1.048-0.698,1.796-0.885c0.749-0.19,1.679-0.284,2.796-0.284h7.217
		c0.839,0,1.534,0.07,2.085,0.208c0.548,0.139,0.984,0.369,1.305,0.69c0.32,0.321,0.545,0.738,0.676,1.256
		c0.131,0.519,0.198,1.144,0.198,1.884V20.296z M123.11,16.431c0,0.294-0.144,0.444-0.441,0.444h-6.551
		c-0.529,0-0.962,0.043-1.307,0.134s-0.62,0.238-0.826,0.443c-0.203,0.206-0.347,0.484-0.43,0.839
		c-0.083,0.353-0.123,0.781-0.123,1.291v7.316c0,0.363-0.182,0.542-0.542,0.542h-2.414c-0.377,0-0.567-0.179-0.567-0.542v-7.982
		c0-0.887,0.099-1.646,0.297-2.277s0.519-1.149,0.973-1.553c0.449-0.404,1.048-0.698,1.796-0.885
		c0.749-0.19,1.679-0.284,2.796-0.284h6.899c0.297,0,0.441,0.145,0.441,0.444V16.431z M128.606,26.898
		c0,0.363-0.182,0.542-0.543,0.542h-2.414c-0.361,0-0.542-0.179-0.542-0.542V14.485c0-0.379,0.182-0.567,0.542-0.567h2.414
		c0.361,0,0.543,0.188,0.543,0.567V26.898z M128.606,11.798c0,0.377-0.182,0.567-0.543,0.567h-2.414
		c-0.377,0-0.567-0.19-0.567-0.567V9.459c0-0.363,0.19-0.545,0.567-0.545h2.414c0.361,0,0.543,0.182,0.543,0.545V11.798z
		 M148.536,20.296c0,0.527-0.115,0.893-0.345,1.096c-0.23,0.208-0.583,0.31-1.059,0.31h-12.44v0.59c0,0.772,0.185,1.329,0.554,1.676
		c0.369,0.342,1.088,0.516,2.154,0.516h10.272c0.297,0,0.443,0.147,0.443,0.444v2.069c0,0.297-0.146,0.444-0.443,0.444h-10.617
		c-1.117,0-2.048-0.088-2.796-0.27c-0.746-0.182-1.348-0.473-1.799-0.877c-0.452-0.401-0.775-0.919-0.973-1.55
		c-0.195-0.631-0.294-1.393-0.294-2.277v-3.55c0-0.887,0.099-1.646,0.294-2.277c0.198-0.631,0.521-1.149,0.973-1.553
		c0.451-0.404,1.053-0.698,1.799-0.885c0.748-0.19,1.679-0.284,2.796-0.284h7.22c0.837,0,1.529,0.07,2.079,0.208
		c0.551,0.139,0.986,0.369,1.308,0.69c0.32,0.321,0.545,0.738,0.676,1.256s0.198,1.144,0.198,1.884V20.296z"/>
	<path fill="#FFFFFF" d="M143.585,16.65H137.4c-1.066,0-1.785,0.171-2.154,0.508s-0.554,0.898-0.554,1.684v0.668h9.976
		c0.278,0,0.42-0.139,0.42-0.42v-1.034c0-0.508-0.106-0.872-0.32-1.085S144.158,16.65,143.585,16.65z"/>
</g>
</svg>
