<?xml version="1.0" encoding="utf-8"?>
<!-- Generator: Adobe Illustrator 16.0.3, SVG Export Plug-In . SVG Version: 6.00 Build 0)  -->
<!DOCTYPE svg PUBLIC "-//W3C//DTD SVG 1.1//EN" "http://www.w3.org/Graphics/SVG/1.1/DTD/svg11.dtd">
<svg version="1.1" id="Layer_1" xmlns="http://www.w3.org/2000/svg" xmlns:xlink="http://www.w3.org/1999/xlink" x="0px" y="0px"
	 width="204.001px" height="72.055px" viewBox="0 0 204.001 72.055" enable-background="new 0 0 204.001 72.055"
	 xml:space="preserve">
<g>
	<path fill="#FFFFFF" d="M82.723,49.918H75.76c-1.201,0-2.011,0.187-2.426,0.566c-0.415,0.379-0.623,1.011-0.623,1.901v0.746h11.23
		c0.313,0,0.473-0.156,0.473-0.469v-1.168c0-0.571-0.12-0.978-0.361-1.219C83.813,50.039,83.367,49.918,82.723,49.918z"/>
	<path fill="#FFFFFF" d="M121.606,49.918h-6.964c-1.201,0-2.01,0.187-2.426,0.566c-0.415,0.379-0.623,1.011-0.623,1.901v0.746
		h11.231c0.313,0,0.472-0.156,0.472-0.469v-1.168c0-0.571-0.12-0.978-0.36-1.219C122.695,50.039,122.25,49.918,121.606,49.918z"/>
	<path fill="#FFFFFF" d="M58.263,19.383v-1.164c0-0.572-0.12-0.981-0.36-1.223c-0.241-0.24-0.687-0.36-1.33-0.36h-6.964
		c-1.201,0-2.01,0.192-2.426,0.571c-0.415,0.379-0.623,1.012-0.623,1.896v0.752h11.231C58.104,19.855,58.263,19.699,58.263,19.383z"
		/>
	<path fill="#FFFFFF" d="M114.573,22.696c-0.231,0.231-0.346,0.568-0.346,1.011v0.584c0,0.5,0.114,0.867,0.346,1.096
		c0.231,0.231,0.632,0.346,1.207,0.346h9.347c0.295,0,0.503-0.069,0.623-0.207c0.12-0.139,0.181-0.386,0.181-0.734V22.35h-10.15
		C115.205,22.35,114.805,22.468,114.573,22.696z"/>
	<path fill="#FFFFFF" d="M15.275,50.318c-0.388,0.103-0.698,0.268-0.93,0.5c-0.231,0.231-0.394,0.545-0.484,0.941
		c-0.093,0.397-0.138,0.885-0.138,1.457v2.468c0,0.593,0.045,1.083,0.138,1.471c0.09,0.389,0.253,0.698,0.484,0.931
		c0.232,0.229,0.542,0.396,0.93,0.499c0.388,0.1,0.875,0.15,1.468,0.15h6.991c0.608,0,1.107-0.051,1.496-0.15
		c0.388-0.103,0.698-0.271,0.93-0.499c0.232-0.232,0.392-0.542,0.485-0.931c0.093-0.388,0.138-0.878,0.138-1.471v-5.52H16.744
		C16.151,50.165,15.664,50.22,15.275,50.318z"/>
	<path fill="#FFFFFF" d="M103.147,17.538c-0.232-0.231-0.539-0.397-0.931-0.499c-0.388-0.103-0.885-0.15-1.495-0.15H93.73
		c-0.59,0-1.08,0.048-1.468,0.15c-0.389,0.102-0.698,0.268-0.931,0.499c-0.231,0.231-0.391,0.545-0.484,0.945
		c-0.093,0.396-0.138,0.878-0.138,1.453v5.52h10.012c0.61,0,1.107-0.046,1.495-0.139c0.392-0.094,0.698-0.259,0.931-0.5
		c0.231-0.237,0.394-0.554,0.487-0.941c0.09-0.392,0.138-0.879,0.138-1.469v-2.471c0-0.575-0.048-1.057-0.138-1.453
		C103.541,18.083,103.379,17.77,103.147,17.538z"/>
	<path fill="#FFFFFF" d="M0,0v72.055h204.001V0H0z M132.196,19.188c0-0.999,0.111-1.854,0.334-2.564
		c0.223-0.71,0.587-1.294,1.095-1.748c0.509-0.454,1.183-0.785,2.025-0.996c0.84-0.214,1.89-0.319,3.147-0.319h11.15
		c0.33,0,0.499,0.163,0.499,0.5v2.329c0,0.331-0.169,0.5-0.499,0.5h-10.762c-0.611,0-1.11,0.048-1.499,0.15
		c-0.388,0.102-0.691,0.268-0.914,0.499s-0.38,0.545-0.473,0.945c-0.091,0.396-0.139,0.878-0.139,1.453v2.471
		c0,0.59,0.048,1.077,0.139,1.469c0.093,0.388,0.25,0.698,0.473,0.927c0.223,0.234,0.526,0.397,0.914,0.499
		c0.389,0.103,0.888,0.154,1.499,0.154h10.762c0.33,0,0.499,0.165,0.499,0.499v2.329c0,0.334-0.169,0.5-0.499,0.5h-11.15
		c-1.258,0-2.308-0.1-3.147-0.304c-0.843-0.205-1.517-0.533-2.025-0.987c-0.508-0.451-0.872-1.035-1.095-1.745
		c-0.223-0.711-0.334-1.568-0.334-2.564V19.188z M64.778,26.066c0-0.334,0.166-0.499,0.5-0.499h13.145
		c0.574,0,0.975-0.103,1.206-0.308c0.232-0.201,0.347-0.541,0.347-1.022v-0.753c0-0.367-0.114-0.656-0.347-0.857
		c-0.231-0.201-0.632-0.304-1.206-0.304h-9.317c-1.553,0-2.663-0.319-3.328-0.957s-0.999-1.568-0.999-2.787v-1.222
		c0-0.571,0.072-1.095,0.223-1.564c0.147-0.476,0.392-0.876,0.734-1.21c0.343-0.331,0.791-0.584,1.345-0.762
		c0.554-0.177,1.237-0.262,2.053-0.262h13.533c0.334,0,0.499,0.163,0.499,0.5v2.215c0,0.334-0.165,0.499-0.499,0.499H70.159
		c-0.575,0-0.973,0.108-1.191,0.319c-0.224,0.214-0.335,0.523-0.335,0.93v0.419c0,0.367,0.111,0.658,0.335,0.872
		c0.219,0.211,0.616,0.319,1.191,0.319h9.347c1.553,0,2.66,0.325,3.328,0.969c0.665,0.65,0.996,1.564,0.996,2.744v1.557
		c0,0.61-0.072,1.155-0.22,1.634c-0.15,0.481-0.394,0.891-0.737,1.222c-0.34,0.331-0.788,0.587-1.345,0.765
		c-0.554,0.174-1.237,0.262-2.053,0.262H65.278c-0.334,0-0.5-0.166-0.5-0.5V26.066z M82.527,39.6
		c0.093,0.111,0.084,0.268-0.027,0.473L79.645,45.2c-0.111,0.204-0.229,0.36-0.35,0.475c-0.12,0.108-0.279,0.163-0.484,0.163h-2.106
		c-0.204,0-0.352-0.055-0.445-0.163c-0.093-0.114-0.093-0.271,0-0.475l2.524-5.128c0.202-0.428,0.491-0.639,0.861-0.639h2.44
		C82.286,39.434,82.434,39.488,82.527,39.6z M42.621,19.188c0-0.999,0.111-1.854,0.331-2.564c0.223-0.71,0.587-1.294,1.095-1.748
		c0.509-0.454,1.186-0.785,2.025-0.996c0.843-0.214,1.89-0.319,3.147-0.319h8.129c0.941,0,1.721,0.078,2.341,0.235
		c0.62,0.156,1.11,0.415,1.472,0.776c0.361,0.36,0.614,0.83,0.762,1.414s0.223,1.288,0.223,2.122v2.633
		c0,0.593-0.13,1.005-0.389,1.233c-0.259,0.235-0.656,0.35-1.191,0.35H46.56v0.665c0,0.869,0.208,1.495,0.623,1.887
		c0.416,0.385,1.225,0.581,2.426,0.581h11.564c0.334,0,0.5,0.165,0.5,0.499v2.329c0,0.334-0.166,0.5-0.5,0.5H49.22
		c-1.258,0-2.305-0.1-3.147-0.304c-0.84-0.205-1.517-0.533-2.025-0.987c-0.508-0.451-0.872-1.035-1.095-1.745
		c-0.22-0.711-0.331-1.568-0.331-2.564V19.188z M30.722,56.461c0,0.999-0.111,1.854-0.334,2.566
		c-0.22,0.713-0.587,1.294-1.096,1.749c-0.508,0.451-1.188,0.779-2.037,0.98c-0.852,0.205-1.896,0.307-3.133,0.307h-7.767
		c-1.258,0-2.305-0.102-3.147-0.307c-0.843-0.201-1.517-0.529-2.025-0.98c-0.509-0.455-0.873-1.036-1.095-1.749
		c-0.22-0.713-0.331-1.567-0.331-2.566v-3.99c0-1,0.111-1.854,0.331-2.567c0.223-0.713,0.586-1.294,1.095-1.748
		c0.508-0.452,1.183-0.786,2.025-0.999c0.842-0.211,1.89-0.319,3.147-0.319h10.427v-4.963c0-0.406,0.205-0.61,0.611-0.61h2.718
		c0.406,0,0.611,0.204,0.611,0.61V56.461z M30.722,24.264c0,1.352-0.397,2.44-1.192,3.271c-0.797,0.834-2.034,1.249-3.716,1.249
		H10.448c-0.424,0-0.638-0.202-0.638-0.611v-2.468c0-0.406,0.213-0.607,0.638-0.607h14.701c0.536,0,0.915-0.145,1.134-0.434
		c0.223-0.286,0.334-0.668,0.334-1.149v-1.388c0-1.035-0.481-1.553-1.441-1.553H12.362c-0.942,0-1.61-0.184-1.998-0.557
		c-0.389-0.367-0.581-0.969-0.581-1.799v-6.491c0-0.813,0.192-1.412,0.581-1.791c0.388-0.376,1.056-0.565,1.998-0.565h17.03
		C29.798,9.371,30,9.575,30,9.979v2.47c0,0.406-0.202,0.611-0.608,0.611H14.441c-0.37,0-0.554,0.192-0.554,0.581v3.162
		c0,0.386,0.184,0.581,0.554,0.581h11.427c1.61,0,2.819,0.412,3.632,1.236c0.816,0.822,1.222,1.992,1.222,3.506V24.264z
		 M38.125,61.453c0,0.406-0.202,0.61-0.608,0.61H34.8c-0.41,0-0.611-0.204-0.611-0.61V47.475c0-0.424,0.202-0.638,0.611-0.638h2.717
		c0.406,0,0.608,0.214,0.608,0.638V61.453z M38.125,44.453c0,0.425-0.202,0.639-0.608,0.639H34.8c-0.428,0-0.638-0.214-0.638-0.639
		v-2.636c0-0.406,0.21-0.608,0.638-0.608h2.717c0.406,0,0.608,0.202,0.608,0.608V44.453z M52.991,43.509
		c0,0.334-0.166,0.499-0.5,0.499h-2.69c-0.905,0-1.52,0.181-1.845,0.542c-0.321,0.361-0.484,0.93-0.484,1.706v0.581h4.854
		c0.331,0,0.499,0.168,0.499,0.499v2.275c0,0.331-0.168,0.5-0.499,0.5h-4.854v11.342c0,0.406-0.204,0.61-0.61,0.61h-2.718
		c-0.406,0-0.611-0.204-0.611-0.61V50.111h-2.66c-0.334,0-0.499-0.169-0.499-0.5v-2.275c0-0.331,0.165-0.499,0.499-0.499h2.66
		v-0.581c0-0.978,0.085-1.817,0.25-2.51c0.169-0.695,0.464-1.261,0.888-1.706c0.425-0.445,0.999-0.771,1.722-0.984
		c0.719-0.214,1.634-0.318,2.744-0.318h3.355c0.334,0,0.5,0.165,0.5,0.499V43.509z M67.135,43.509c0,0.334-0.166,0.499-0.5,0.499
		h-2.69c-0.905,0-1.52,0.181-1.845,0.542c-0.321,0.361-0.484,0.93-0.484,1.706v0.581h4.854c0.331,0,0.499,0.168,0.499,0.499v2.275
		c0,0.331-0.168,0.5-0.499,0.5h-4.854v11.342c0,0.406-0.204,0.61-0.61,0.61h-2.718c-0.406,0-0.61-0.204-0.61-0.61V50.111h-2.66
		c-0.334,0-0.5-0.169-0.5-0.5v-2.275c0-0.331,0.166-0.499,0.5-0.499h2.66v-0.581c0-0.978,0.084-1.817,0.249-2.51
		c0.169-0.695,0.464-1.261,0.888-1.706c0.425-0.445,1-0.771,1.722-0.984c0.72-0.214,1.634-0.318,2.744-0.318h3.355
		c0.334,0,0.5,0.165,0.5,0.499V43.509z M88.296,54.023c0,0.59-0.129,0.999-0.388,1.233c-0.259,0.229-0.656,0.343-1.192,0.343H72.711
		v0.668c0,0.867,0.208,1.499,0.623,1.884c0.415,0.392,1.225,0.584,2.426,0.584h11.564c0.334,0,0.499,0.169,0.499,0.5v2.329
		c0,0.331-0.165,0.499-0.499,0.499H75.371c-1.258,0-2.305-0.102-3.147-0.307c-0.84-0.201-1.517-0.529-2.025-0.98
		c-0.509-0.455-0.873-1.036-1.096-1.749c-0.22-0.713-0.331-1.567-0.331-2.566v-3.99c0-1,0.111-1.854,0.331-2.567
		c0.223-0.713,0.587-1.294,1.096-1.748c0.509-0.452,1.186-0.786,2.025-0.999c0.843-0.211,1.89-0.319,3.147-0.319h8.128
		c0.942,0,1.722,0.078,2.342,0.237c0.619,0.157,1.11,0.416,1.472,0.776c0.36,0.358,0.613,0.834,0.761,1.415
		c0.147,0.58,0.223,1.291,0.223,2.121V54.023z M106.045,49.666c0,0.334-0.169,0.499-0.499,0.499h-7.379
		c-0.59,0-1.081,0.055-1.469,0.153c-0.389,0.103-0.698,0.268-0.93,0.5c-0.232,0.231-0.392,0.545-0.484,0.941
		c-0.094,0.397-0.139,0.885-0.139,1.457v8.236c0,0.406-0.205,0.61-0.611,0.61h-2.717c-0.425,0-0.639-0.204-0.639-0.61v-8.982
		c0-1,0.111-1.854,0.334-2.567c0.22-0.713,0.587-1.294,1.096-1.748c0.506-0.452,1.183-0.786,2.022-0.999
		c0.843-0.211,1.89-0.319,3.147-0.319h7.768c0.33,0,0.499,0.168,0.499,0.499V49.666z M106.282,27.493
		c-0.508,0.454-1.188,0.782-2.04,0.987c-0.849,0.204-1.896,0.304-3.133,0.304H90.71v5.519c0,0.406-0.205,0.611-0.611,0.611h-2.718
		c-0.424,0-0.638-0.205-0.638-0.611V19.188c0-0.999,0.111-1.854,0.334-2.564c0.22-0.71,0.587-1.294,1.096-1.748
		c0.506-0.454,1.183-0.785,2.022-0.996c0.842-0.214,1.89-0.319,3.147-0.319h7.767c1.237,0,2.284,0.105,3.133,0.319
		c0.852,0.211,1.532,0.542,2.04,0.996c0.509,0.454,0.873,1.038,1.096,1.748c0.22,0.711,0.331,1.565,0.331,2.564v3.996
		c0,0.996-0.111,1.854-0.331,2.564C107.155,26.458,106.791,27.042,106.282,27.493z M127.18,54.023c0,0.59-0.13,0.999-0.389,1.233
		c-0.259,0.229-0.656,0.343-1.191,0.343h-14.006v0.668c0,0.867,0.208,1.499,0.623,1.884c0.416,0.392,1.225,0.584,2.426,0.584h11.564
		c0.334,0,0.5,0.169,0.5,0.5v2.329c0,0.331-0.166,0.499-0.5,0.499h-11.953c-1.258,0-2.305-0.102-3.147-0.307
		c-0.84-0.201-1.517-0.529-2.025-0.98c-0.508-0.455-0.872-1.036-1.095-1.749c-0.22-0.713-0.331-1.567-0.331-2.566v-3.99
		c0-1,0.111-1.854,0.331-2.567c0.223-0.713,0.587-1.294,1.095-1.748c0.509-0.452,1.186-0.786,2.025-0.999
		c0.843-0.211,1.89-0.319,3.147-0.319h8.129c0.941,0,1.721,0.078,2.341,0.237c0.62,0.157,1.11,0.416,1.472,0.776
		c0.361,0.358,0.614,0.834,0.762,1.415c0.147,0.58,0.223,1.291,0.223,2.121V54.023z M129.896,26.566
		c0,0.442-0.033,0.807-0.096,1.095c-0.066,0.286-0.178,0.512-0.334,0.681c-0.157,0.165-0.364,0.282-0.623,0.343
		c-0.259,0.066-0.593,0.1-0.999,0.1h-13.202c-0.813,0-1.492-0.078-2.037-0.238c-0.548-0.156-0.984-0.391-1.318-0.704
		c-0.334-0.313-0.568-0.722-0.707-1.222c-0.139-0.499-0.208-1.089-0.208-1.775v-1.33c0-0.571,0.069-1.086,0.208-1.541
		c0.139-0.451,0.373-0.836,0.707-1.149c0.334-0.313,0.771-0.548,1.318-0.707c0.545-0.156,1.225-0.237,2.037-0.237h11.288v-0.524
		c0-0.445-0.045-0.824-0.139-1.137c-0.093-0.313-0.25-0.569-0.473-0.765c-0.22-0.192-0.526-0.337-0.914-0.428
		c-0.389-0.096-0.889-0.138-1.499-0.138h-11.592c-0.331,0-0.5-0.169-0.5-0.5V14.06c0-0.337,0.169-0.5,0.5-0.5h11.982
		c1.237,0,2.281,0.105,3.133,0.319c0.849,0.211,1.529,0.542,2.038,0.996c0.508,0.454,0.875,1.038,1.095,1.748
		c0.223,0.711,0.334,1.565,0.334,2.564V26.566z M151.224,61.453c0,0.406-0.204,0.61-0.61,0.61h-2.718
		c-0.406,0-0.611-0.204-0.611-0.61v-8.044c0-0.572-0.036-1.057-0.111-1.453c-0.072-0.4-0.217-0.714-0.43-0.942
		c-0.211-0.234-0.503-0.397-0.873-0.499c-0.37-0.103-0.852-0.154-1.441-0.154h-7.379c-0.59,0-1.08,0.052-1.469,0.154
		c-0.388,0.102-0.698,0.265-0.93,0.499c-0.231,0.229-0.391,0.542-0.484,0.942c-0.094,0.396-0.139,0.881-0.139,1.453v8.044
		c0,0.406-0.204,0.61-0.61,0.61H130.7c-0.424,0-0.638-0.204-0.638-0.61v-8.982c0-1,0.111-1.854,0.334-2.567
		c0.22-0.713,0.587-1.294,1.095-1.748c0.506-0.452,1.184-0.786,2.022-0.999c0.843-0.211,1.89-0.319,3.148-0.319h7.959
		c1.24,0,2.284,0.108,3.136,0.319c0.849,0.213,1.529,0.547,2.037,0.999c0.509,0.454,0.873,1.035,1.096,1.748
		s0.334,1.567,0.334,2.567V61.453z M152.473,23.184v-3.996c0-0.999,0.111-1.854,0.331-2.564c0.223-0.71,0.587-1.294,1.096-1.748
		c0.508-0.454,1.186-0.785,2.024-0.996c0.843-0.214,1.891-0.319,3.148-0.319h8.128c0.941,0,1.722,0.078,2.341,0.235
		c0.62,0.156,1.11,0.415,1.472,0.776c0.361,0.36,0.614,0.83,0.762,1.414s0.223,1.288,0.223,2.122v2.633
		c0,0.593-0.13,1.005-0.389,1.233c-0.259,0.235-0.655,0.35-1.191,0.35h-14.005v0.665c0,0.869,0.207,1.495,0.623,1.887
		c0.415,0.385,1.225,0.581,2.425,0.581h11.565c0.334,0,0.499,0.165,0.499,0.499v2.329c0,0.334-0.165,0.5-0.499,0.5h-11.953
		c-1.258,0-2.306-0.1-3.148-0.304c-0.839-0.205-1.517-0.533-2.024-0.987c-0.509-0.451-0.873-1.035-1.096-1.745
		C152.584,25.037,152.473,24.18,152.473,23.184z M166.006,61.564c0,0.331-0.166,0.499-0.5,0.499h-3.355
		c-1.11,0-2.025-0.102-2.744-0.307c-0.723-0.201-1.3-0.523-1.733-0.969c-0.437-0.445-0.737-1.018-0.903-1.722
		c-0.165-0.701-0.249-1.541-0.249-2.521v-6.434h-2.634c-0.334,0-0.499-0.169-0.499-0.5v-2.275c0-0.331,0.165-0.499,0.499-0.499
		h2.634v-3.659c0-0.406,0.204-0.611,0.61-0.611h2.745c0.406,0,0.61,0.205,0.61,0.611v3.659h4.854c0.331,0,0.499,0.168,0.499,0.499
		v2.275c0,0.331-0.168,0.5-0.499,0.5h-4.854v6.434c0,0.776,0.156,1.345,0.473,1.706c0.313,0.358,0.933,0.539,1.856,0.539h2.69
		c0.334,0,0.5,0.168,0.5,0.499V61.564z M186.969,58.182c0,0.608-0.072,1.156-0.22,1.638c-0.15,0.481-0.395,0.885-0.737,1.219
		c-0.341,0.334-0.789,0.587-1.346,0.761c-0.554,0.178-1.236,0.265-2.052,0.265h-14.198c-0.334,0-0.5-0.168-0.5-0.499v-2.218
		c0-0.334,0.166-0.5,0.5-0.5h13.145c0.575,0,0.975-0.103,1.207-0.304c0.231-0.205,0.346-0.548,0.346-1.029v-0.746
		c0-0.37-0.114-0.656-0.346-0.86c-0.232-0.205-0.632-0.308-1.207-0.308h-9.316c-1.553,0-2.664-0.318-3.329-0.957
		c-0.665-0.635-0.999-1.564-0.999-2.786v-1.219c0-0.575,0.072-1.096,0.223-1.568c0.147-0.469,0.392-0.872,0.734-1.203
		c0.344-0.334,0.792-0.59,1.346-0.765s1.236-0.265,2.052-0.265h13.533c0.334,0,0.5,0.168,0.5,0.499v2.222
		c0,0.331-0.166,0.499-0.5,0.499h-12.507c-0.574,0-0.972,0.105-1.191,0.319c-0.223,0.21-0.334,0.521-0.334,0.927v0.415
		c0,0.373,0.111,0.662,0.334,0.873c0.22,0.217,0.617,0.318,1.191,0.318h9.347c1.553,0,2.66,0.325,3.329,0.976
		c0.665,0.644,0.996,1.559,0.996,2.744V58.182z M193.682,24.902c0,0.61-0.072,1.155-0.22,1.634c-0.15,0.481-0.394,0.891-0.736,1.222
		c-0.341,0.331-0.789,0.587-1.346,0.765c-0.554,0.174-1.236,0.262-2.053,0.262H175.13c-0.334,0-0.5-0.166-0.5-0.5v-2.218
		c0-0.334,0.166-0.499,0.5-0.499h13.145c0.574,0,0.975-0.103,1.207-0.308c0.231-0.201,0.346-0.541,0.346-1.022v-0.753
		c0-0.367-0.114-0.656-0.346-0.857c-0.232-0.201-0.633-0.304-1.207-0.304h-9.317c-1.553,0-2.663-0.319-3.328-0.957
		s-0.999-1.568-0.999-2.787v-1.222c0-0.571,0.072-1.095,0.223-1.564c0.147-0.476,0.392-0.876,0.734-1.21
		c0.343-0.331,0.792-0.584,1.346-0.762c0.554-0.177,1.236-0.262,2.052-0.262h13.533c0.334,0,0.499,0.163,0.499,0.5v2.215
		c0,0.334-0.165,0.499-0.499,0.499h-12.507c-0.575,0-0.972,0.108-1.191,0.319c-0.223,0.214-0.334,0.523-0.334,0.93v0.419
		c0,0.367,0.111,0.658,0.334,0.872c0.22,0.211,0.616,0.319,1.191,0.319h9.347c1.553,0,2.66,0.325,3.328,0.969
		c0.665,0.65,0.996,1.564,0.996,2.744V24.902z"/>
	<path fill="#FFFFFF" d="M168.115,19.383v-1.164c0-0.572-0.121-0.981-0.361-1.223c-0.241-0.24-0.687-0.36-1.33-0.36h-6.964
		c-1.2,0-2.01,0.192-2.425,0.571c-0.416,0.379-0.623,1.012-0.623,1.896v0.752h11.23C167.955,19.855,168.115,19.699,168.115,19.383z"
		/>
</g>
</svg>
