<?xml version="1.0" encoding="utf-8"?>
<!-- Generator: Adobe Illustrator 16.0.3, SVG Export Plug-In . SVG Version: 6.00 Build 0)  -->
<!DOCTYPE svg PUBLIC "-//W3C//DTD SVG 1.1//EN" "http://www.w3.org/Graphics/SVG/1.1/DTD/svg11.dtd">
<svg version="1.1" id="Layer_1" xmlns="http://www.w3.org/2000/svg" xmlns:xlink="http://www.w3.org/1999/xlink" x="0px" y="0px"
	 width="19.079px" height="18.401px" viewBox="0 0 19.079 18.401" enable-background="new 0 0 19.079 18.401" xml:space="preserve">
<path fill-rule="evenodd" clip-rule="evenodd" fill="#999999" stroke="#999999" stroke-width="0.25" stroke-miterlimit="10" d="
	M8.572,10.165c2.016,0.45,4.148-0.566,5.061-2.483c0.7-1.466,0.725-3.003,0.202-4.534c-0.723-2.118-2.881-3.356-5.077-2.943
	c-2.425,0.458-3.837,2.27-3.84,4.923c0.001,0.176-0.004,0.352,0.003,0.528C4.998,7.856,6.498,9.704,8.572,10.165z M8.157,1.926
	c2.009-1.024,4.425,0.411,4.513,2.672c0.021,0.555,0.051,1.128-0.05,1.668c-0.283,1.505-1.834,2.72-3.228,2.595
	C7.674,8.707,6.427,7.365,6.408,5.639c-0.004-0.148,0-0.294,0-0.479C6.314,3.745,6.83,2.601,8.157,1.926z"/>
<path fill-rule="evenodd" clip-rule="evenodd" fill="#999999" stroke="#999999" stroke-width="0.25" stroke-miterlimit="10" d="
	M1.51,18.268c-0.1-1.51,0.393-2.681,1.74-3.402c4.199-2.25,8.398-2.262,12.585,0.014c1.067,0.581,1.752,1.449,1.72,2.751
	c-0.007,0.22,0.068,0.44,0.106,0.646c0.445,0,0.815,0,1.195,0c0.341-1.844-0.202-3.287-1.73-4.308
	c-4.461-2.983-10.706-2.986-15.188,0.004c-1.518,1.011-2.071,2.468-1.704,4.296C0.643,18.268,1.033,18.268,1.51,18.268z"/>
</svg>
