<?xml version="1.0" encoding="utf-8"?>
<!-- Generator: Adobe Illustrator 16.0.3, SVG Export Plug-In . SVG Version: 6.00 Build 0)  -->
<!DOCTYPE svg PUBLIC "-//W3C//DTD SVG 1.1//EN" "http://www.w3.org/Graphics/SVG/1.1/DTD/svg11.dtd">
<svg version="1.1" id="Layer_1" xmlns="http://www.w3.org/2000/svg" xmlns:xlink="http://www.w3.org/1999/xlink" x="0px" y="0px"
	 width="33.791px" height="30.313px" viewBox="0 0 33.791 30.313" enable-background="new 0 0 33.791 30.313" xml:space="preserve">
<g>
	<path fill-rule="evenodd" clip-rule="evenodd" fill="#A7A9AC" d="M30.059,16.212c0.006-0.349-0.165-0.493-0.498-0.49
		c-0.268,0.003-0.534,0.001-0.841,0.001c0-0.438,0.007-0.83-0.002-1.221c-0.029-1.261-0.403-2.409-1.215-3.382
		c-0.236-0.283-0.338-0.554-0.321-0.914c0.023-0.52-0.084-0.62-0.613-0.605c-0.561,0.016-1.094-0.048-1.629-0.251
		c-0.882-0.336-1.807-0.352-2.729-0.177c-0.804,0.153-1.552,0.548-2.417,0.439c-0.564-0.072-0.65,0.078-0.671,0.643
		c-0.01,0.276,0.021,0.621-0.125,0.812c-0.888,1.152-1.277,2.439-1.211,3.88c0.012,0.25,0.002,0.501,0.002,0.752
		c-0.503,0-0.933,0-1.402,0c0-0.375,0.001-0.725,0-1.075c-0.008-1.307-0.376-2.496-1.216-3.504c-0.239-0.285-0.327-0.56-0.314-0.916
		c0.021-0.506-0.097-0.618-0.624-0.603c-0.562,0.016-1.092-0.049-1.627-0.252c-0.882-0.335-1.807-0.351-2.731-0.176
		C9.07,9.324,8.322,9.721,7.457,9.611c-0.559-0.072-0.642,0.081-0.67,0.645C6.773,10.552,6.77,10.911,6.61,11.13
		c-0.762,1.048-1.174,2.193-1.16,3.491c0.005,0.351,0,0.701,0,1.102c-0.438,0-0.805,0.008-1.171-0.003
		c-0.372-0.011-0.556,0.144-0.549,0.528c0.01,0.557,0.006,1.115,0.002,1.672c-0.003,0.333,0.135,0.516,0.486,0.498
		c0.162-0.008,0.324-0.019,0.487-0.02c0.715-0.002,1.429,0,2.179,0c0,0.883-0.001,1.693,0,2.504c0,1.889,0.004,3.779,0.001,5.668
		c-0.001,0.371,0.154,0.553,0.537,0.548c0.694-0.009,1.388,0.001,2.081-0.003c0.452-0.003,0.555-0.104,0.559-0.547
		c0.003-0.402,0.001-0.805,0.001-1.193c4.626,0,9.184,0,13.767,0c0,0.43,0.01,0.822-0.002,1.215
		c-0.011,0.359,0.146,0.529,0.506,0.527c0.72-0.004,1.44-0.004,2.162,0c0.334,0.002,0.511-0.147,0.511-0.487
		c-0.001-1.931-0.002-3.86-0.003-5.791c0-0.794,0-1.589,0-2.423c0.877,0,1.702-0.01,2.527,0.005c0.39,0.007,0.541-0.156,0.529-0.537
		C30.046,17.326,30.05,16.77,30.059,16.212z M27.188,14.566c0-0.812,0-1.624,0-2.437c0.804,1.07,0.803,2.293,0.744,3.563
		c-1.083,0-2.161,0-3.272,0c-0.004-0.126-0.01-0.254-0.02-0.442c0.636,0,1.24,0.002,1.848,0
		C27.148,15.249,27.188,15.209,27.188,14.566z M19.926,10.378c2.164,0,4.315,0,6.496,0c0,1.388,0,2.728,0,4.09
		c-2.17,0-4.32,0-6.496,0C19.926,13.104,19.926,11.754,19.926,10.378z M23.841,15.283c0,0.141,0,0.268,0,0.417
		c-0.397,0-0.782,0-1.212,0c0-0.147,0-0.267,0-0.417C23.033,15.283,23.426,15.283,23.841,15.283z M19.127,12.445
		c0,0.671,0,1.343,0,2.015c0,0.771,0.021,0.79,0.807,0.79c0.621,0,1.242,0,1.9,0c0.014,0.158,0.023,0.286,0.037,0.444
		c-1.118,0-2.208,0-3.321,0C18.506,14.565,18.479,13.461,19.127,12.445z M14.862,14.624c0.001-0.829,0-1.658,0-2.5
		c0.575,0.486,0.892,2.066,0.716,3.577c-1.092,0-2.16,0-3.248,0c0-0.148,0-0.278,0-0.452c0.646,0,1.267,0.001,1.89,0
		C14.796,15.248,14.861,15.186,14.862,14.624z M7.585,10.385c2.158,0,4.308,0,6.493,0c0,1.353,0,2.701,0,4.095
		c-2.172,0-4.315,0-6.493,0C7.585,13.117,7.585,11.768,7.585,10.385z M11.508,15.275c0,0.146,0,0.274,0,0.425
		c-0.397,0-0.785,0-1.202,0c0-0.16,0-0.281,0-0.425C10.71,15.275,11.097,15.275,11.508,15.275z M6.796,12.438
		c0,0.723-0.001,1.446,0,2.169c0.001,0.565,0.073,0.64,0.63,0.642c0.572,0.002,1.143-0.001,1.714,0.001
		c0.395,0.001,0.395,0.003,0.358,0.441c-1.075,0-2.154,0-3.276,0C6.187,14.554,6.134,13.445,6.796,12.438z M9.304,26.321
		c-0.554,0-1.074,0-1.646,0c0-2.632,0-5.241,0-7.892c0.568,0,1.09,0,1.646,0C9.304,21.051,9.304,23.674,9.304,26.321z
		 M23.812,24.569c-4.585,0-9.142,0-13.722,0c0-2.038,0-4.058,0-6.126c4.562,0,9.124,0,13.722,0
		C23.812,20.49,23.812,22.518,23.812,24.569z M26.234,26.322c-0.564,0-1.087,0-1.643,0c0-2.635,0-5.246,0-7.883
		c0.555,0,1.076,0,1.643,0C26.234,21.075,26.234,23.687,26.234,26.322z M29.287,17.646c-8.243,0-16.492,0-24.766,0
		c0-0.373,0-0.731,0-1.123c8.242,0,16.484,0,24.766,0C29.287,16.898,29.287,17.248,29.287,17.646z"/>
	<path fill-rule="evenodd" clip-rule="evenodd" fill="#A7A9AC" d="M23.216,8.29c1.434,0.007,2.578-1.121,2.581-2.539
		c0.002-1.425-1.137-2.56-2.563-2.557c-1.397,0.001-2.538,1.138-2.547,2.541C20.678,7.127,21.822,8.283,23.216,8.29z M23.246,3.953
		c0.985,0,1.793,0.796,1.802,1.779c0.011,0.983-0.835,1.823-1.822,1.812c-0.983-0.01-1.771-0.816-1.767-1.81
		C21.464,4.734,22.246,3.954,23.246,3.953z"/>
	<path fill-rule="evenodd" clip-rule="evenodd" fill="#A7A9AC" d="M10.901,8.29c1.423,0.003,2.575-1.145,2.569-2.556
		c-0.007-1.398-1.149-2.537-2.548-2.538C9.5,3.194,8.345,4.345,8.352,5.752C8.358,7.15,9.5,8.287,10.901,8.29z M10.928,3.953
		c0.98,0.004,1.79,0.818,1.787,1.795c-0.004,0.972-0.824,1.793-1.795,1.796C9.919,7.547,9.111,6.727,9.123,5.718
		C9.135,4.725,9.928,3.949,10.928,3.953z"/>
	<path fill-rule="evenodd" clip-rule="evenodd" fill="#A7A9AC" d="M9.048,10.791c-0.36,0.284-0.696,0.602-1.015,0.933
		c-0.07,0.073-0.082,0.262-0.039,0.366c0.041,0.104,0.18,0.169,0.259,0.236c0.114-0.027,0.198-0.021,0.243-0.061
		c0.359-0.327,0.727-0.649,1.053-1.007c0.064-0.068,0.013-0.338-0.074-0.418C9.387,10.757,9.133,10.723,9.048,10.791z"/>
	<path fill-rule="evenodd" clip-rule="evenodd" fill="#A7A9AC" d="M21.512,10.81c-0.349,0.276-0.679,0.585-0.982,0.912
		c-0.073,0.079-0.07,0.288-0.023,0.402c0.041,0.099,0.198,0.149,0.27,0.197c0.099-0.021,0.15-0.016,0.175-0.039
		c0.378-0.348,0.763-0.687,1.11-1.061c0.054-0.059-0.021-0.334-0.116-0.405C21.849,10.743,21.605,10.736,21.512,10.81z"/>
</g>
</svg>
