<?xml version="1.0" encoding="utf-8"?>
<!-- Generator: Adobe Illustrator 16.0.3, SVG Export Plug-In . SVG Version: 6.00 Build 0)  -->
<!DOCTYPE svg PUBLIC "-//W3C//DTD SVG 1.1//EN" "http://www.w3.org/Graphics/SVG/1.1/DTD/svg11.dtd">
<svg version="1.1" id="Layer_1" xmlns="http://www.w3.org/2000/svg" xmlns:xlink="http://www.w3.org/1999/xlink" x="0px" y="0px"
	 width="68.439px" height="68.439px" viewBox="0 0 68.439 68.439" enable-background="new 0 0 68.439 68.439" xml:space="preserve">
<path fill="#FFFFFF" d="M35.667,28.348v1.631c0,0.267-0.145,0.398-0.433,0.398c-4.236-0.576-7.874-2.063-10.913-4.458l-2.828-2.629
	h-0.231c0,0.223-0.268,0.766-0.8,1.631v2.429c0.179,1.376,1.12,2.928,2.828,4.658v0.199c-0.932,0-1.875-0.267-2.828-0.798v0.198
	c0,2.596,1.687,4.824,5.059,6.688l-0.399,0.2h-0.998l-1.031-0.2v0.398c1.553,2.841,3.516,4.26,5.89,4.26v0.599
	c-2.662,1.619-5.302,2.429-7.919,2.429h-1.197v0.399c3.814,1.753,7.12,2.629,9.915,2.629c5.854,0,10.847-2.362,14.972-7.087
	c2.974-4.126,4.459-8.041,4.459-11.745v-1.397c2.151-2.063,3.238-3.217,3.262-3.461V25.12c-0.777,0.398-1.863,0.742-3.262,1.03
	l-0.199-0.432c1.265-0.732,2.206-1.741,2.827-3.028v-0.198H51.64c-1.996,0.953-3.206,1.431-3.627,1.431h-0.6
	c-1.485-1.22-2.84-1.896-4.06-2.03h-1.63c-2.264,0-4.082,1.276-5.457,3.827C35.867,26.385,35.667,27.261,35.667,28.348z"/>
</svg>
