<?xml version="1.0" encoding="utf-8"?>
<!-- Generator: Adobe Illustrator 16.0.3, SVG Export Plug-In . SVG Version: 6.00 Build 0)  -->
<!DOCTYPE svg PUBLIC "-//W3C//DTD SVG 1.1//EN" "http://www.w3.org/Graphics/SVG/1.1/DTD/svg11.dtd">
<svg version="1.1" id="Layer_1" xmlns="http://www.w3.org/2000/svg" xmlns:xlink="http://www.w3.org/1999/xlink" x="0px" y="0px"
	 width="23.523px" height="16.355px" viewBox="0 0 23.523 16.355" enable-background="new 0 0 23.523 16.355" xml:space="preserve">
<g>
	<g>
		<path fill="#414042" d="M23.523,1.784c0,0.2-0.061,0.3-0.182,0.3H0.181C0.059,2.083,0,1.984,0,1.784V0.313
			C0,0.105,0.059,0,0.181,0h23.16c0.121,0,0.182,0.105,0.182,0.313V1.784z"/>
	</g>
	<g>
		<path fill="#414042" d="M23.523,8.918c0,0.201-0.061,0.301-0.182,0.301H0.181C0.059,9.219,0,9.12,0,8.918v-1.47
			c0-0.207,0.059-0.313,0.181-0.313h23.16c0.121,0,0.182,0.105,0.182,0.313V8.918z"/>
	</g>
	<g>
		<path fill="#414042" d="M23.523,16.054c0,0.201-0.061,0.301-0.182,0.301H0.181c-0.122,0-0.181-0.1-0.181-0.301v-1.47
			c0-0.207,0.059-0.313,0.181-0.313h23.16c0.121,0,0.182,0.105,0.182,0.313V16.054z"/>
	</g>
</g>
</svg>
