<?xml version="1.0" encoding="utf-8"?>
<!-- Generator: Adobe Illustrator 16.0.3, SVG Export Plug-In . SVG Version: 6.00 Build 0)  -->
<!DOCTYPE svg PUBLIC "-//W3C//DTD SVG 1.1//EN" "http://www.w3.org/Graphics/SVG/1.1/DTD/svg11.dtd">
<svg version="1.1" id="Layer_1" xmlns="http://www.w3.org/2000/svg" xmlns:xlink="http://www.w3.org/1999/xlink" x="0px" y="0px"
	 width="68.439px" height="68.44px" viewBox="0 0 68.439 68.44" enable-background="new 0 0 68.439 68.44" xml:space="preserve">
<path fill="#FFFFFF" d="M19.729,29.778v1.198c0,3.948,1.553,6.377,4.658,7.286h0.399c0.399-0.487,0.599-0.953,0.599-1.397v-0.632
	c-1.33-2.795-1.996-4.747-1.996-5.856c0-2.351,1.275-4.99,3.826-7.918c2.817-2.019,5.391-3.028,7.72-3.028
	c4.746,0,7.852,2.429,9.315,7.287c0.267,1.264,0.399,2.284,0.399,3.061v0.399c0,4.148-1.486,7.387-4.458,9.716
	c-0.378,0.266-1.254,0.61-2.629,1.031c-2.706,0-4.059-1.286-4.059-3.859c1.219-5.967,1.829-9.217,1.829-9.749
	c0-0.976-0.61-1.719-1.829-2.229h-2.03c-2.019,1.265-3.027,2.962-3.027,5.091v1.198c0,0.266,0.266,1.419,0.799,3.46
	c-1.62,7.298-2.629,12.499-3.028,15.604v2.029v2.629h0.399c2.263-2.352,3.748-5.324,4.458-8.917
	c0.511-2.973,0.921-4.459,1.231-4.459c2.24,1.486,3.859,2.229,4.857,2.229h1.83c5.013,0,8.385-3.648,10.115-10.946l0.199-2.828
	c0-5.833-2.629-9.893-7.886-12.178c-1.264-0.532-3.493-0.998-6.688-1.397c-2.795,0-5.701,0.811-8.717,2.429
	C21.826,21.915,19.729,25.498,19.729,29.778z"/>
</svg>
