<?xml version="1.0" encoding="utf-8"?>
<!-- Generator: Adobe Illustrator 16.0.3, SVG Export Plug-In . SVG Version: 6.00 Build 0)  -->
<!DOCTYPE svg PUBLIC "-//W3C//DTD SVG 1.1//EN" "http://www.w3.org/Graphics/SVG/1.1/DTD/svg11.dtd">
<svg version="1.1" id="Layer_1" xmlns="http://www.w3.org/2000/svg" xmlns:xlink="http://www.w3.org/1999/xlink" x="0px" y="0px"
	 width="33.791px" height="30.313px" viewBox="0 0 33.791 30.313" enable-background="new 0 0 33.791 30.313" xml:space="preserve">
<g>
	<path fill="#A7A9AB" stroke="#A7A9AB" stroke-width="0.25" stroke-miterlimit="10" d="M28.282,13.175
		c-0.012-1.093-0.934-2.026-1.981-2.077c-1.301-0.063-2.397,0.374-3.29,1.327c-0.443,0.477-0.906,0.938-1.328,1.437
		c-0.25,0.3-0.529,0.403-0.91,0.389c-0.635-0.026-1.272-0.007-1.91-0.007c-0.787,0-0.926,0.176-0.689,0.94
		c0.086,0.285,0.24,0.55,0.359,0.826c0.042,0.092,0.07,0.188,0.113,0.309c-1.189,0-2.332,0-3.472,0
		c0.183-0.53,0.371-0.996,0.497-1.479c0.109-0.412-0.075-0.617-0.532-0.604c-0.747,0.024-1.496-0.015-2.244,0.017
		c-0.39,0.015-0.659-0.115-0.907-0.401c-0.406-0.469-0.849-0.906-1.262-1.369c-0.661-0.741-1.481-1.176-2.452-1.356
		c-1.524-0.286-2.759,0.629-2.77,2.092c-0.014,2.07-0.018,4.14,0.002,6.21c0.017,1.659,1.304,2.896,2.971,2.897
		c0.826,0,1.655,0.02,2.482-0.011c0.383-0.013,0.555,0.101,0.669,0.48c0.421,1.412,0.884,2.812,1.331,4.216
		c0.086,0.276,0.164,0.565,0.538,0.565c0.733,0.002,1.466,0.012,2.197-0.007c0.321-0.008,0.509-0.203,0.431-0.538
		c-0.525-2.316-1.048-4.636-1.605-6.945c-0.214-0.883-1.103-1.572-2.021-1.635c-0.572-0.039-1.146-0.029-1.719-0.031
		c-0.85-0.006-0.836-0.002-0.836-0.867c0-0.338,0.086-0.484,0.454-0.483c4.332,0.01,8.664,0.01,12.996,0.002
		c0.32-0.001,0.484,0.093,0.451,0.436c-0.016,0.142-0.02,0.287,0,0.43c0.053,0.396-0.145,0.494-0.5,0.486
		c-0.636-0.015-1.273-0.023-1.908,0.006c-1.229,0.054-2.086,0.785-2.356,1.98c-0.49,2.161-0.978,4.326-1.468,6.489
		c-0.108,0.488,0.031,0.673,0.537,0.679c0.558,0.006,1.117-0.029,1.672,0.012c0.533,0.039,0.797-0.133,0.951-0.675
		c0.4-1.401,0.881-2.78,1.312-4.173c0.095-0.305,0.228-0.435,0.565-0.427c0.892,0.025,1.781,0.013,2.675,0.01
		c1.595-0.006,2.938-1.291,2.959-2.893C28.308,17.348,28.304,15.261,28.282,13.175z M13.63,16.247c-0.914,0.09-1.84,0.08-2.76,0.08
		c-0.144,0.001-0.304-0.15-0.426-0.267c-0.762-0.721-1.517-1.452-2.289-2.194c-0.122,0.123-0.294,0.295-0.494,0.496
		c0.401,0.418,0.82,0.808,1.179,1.246c0.176,0.212,0.315,0.515,0.332,0.782c0.046,0.714,0.012,1.433,0.017,2.148
		c0.004,0.575,0.066,0.636,0.624,0.639c0.716,0.002,1.433-0.002,2.148,0.002c1.022,0.003,1.645,0.48,1.875,1.469
		c0.454,1.942,0.896,3.888,1.34,5.833c0.018,0.073,0.021,0.149,0.041,0.285c-0.456,0-0.886,0.03-1.304-0.019
		c-0.123-0.015-0.27-0.234-0.32-0.39c-0.461-1.399-0.926-2.799-1.34-4.213c-0.145-0.494-0.396-0.652-0.886-0.638
		c-0.954,0.028-1.913-0.039-2.864,0.021c-1.209,0.074-2.236-1.021-2.209-2.229c0.047-1.926,0.049-3.854,0-5.779
		c-0.031-1.315,0.738-1.826,2.017-1.582c0.707,0.136,1.298,0.501,1.789,1.027c0.522,0.558,1.048,1.112,1.554,1.684
		c0.23,0.262,0.49,0.364,0.836,0.355C13.234,14.988,13.976,15,14.72,15C14.698,15.637,14.269,16.184,13.63,16.247z M27.479,19.417
		c-0.006,1.131-0.978,2.093-2.103,2.1c-1.035,0.006-2.069,0.016-3.104-0.004c-0.449-0.009-0.689,0.151-0.822,0.598
		c-0.422,1.396-0.896,2.775-1.313,4.173c-0.117,0.396-0.304,0.534-0.701,0.495c-0.312-0.03-0.627-0.006-0.998-0.006
		c0.315-1.383,0.612-2.692,0.914-4.002c0.17-0.742,0.346-1.48,0.521-2.221c0.204-0.848,0.83-1.355,1.712-1.367
		c0.779-0.012,1.56-0.002,2.34-0.004c0.613-0.002,0.671-0.058,0.675-0.688c0.006-0.748-0.02-1.498,0.014-2.244
		c0.012-0.229,0.125-0.492,0.277-0.663c0.368-0.415,0.789-0.785,1.232-1.219c-0.205-0.19-0.382-0.354-0.62-0.576
		c-0.655,0.664-1.323,1.295-1.938,1.979c-0.393,0.44-0.813,0.647-1.41,0.587c-0.661-0.065-1.336-0.02-1.994-0.104
		c-0.631-0.082-0.963-0.547-1.215-1.248c0.504,0,0.93-0.046,1.341,0.009c0.983,0.131,1.752-0.147,2.334-0.986
		c0.287-0.415,0.671-0.766,1.028-1.127c0.734-0.734,1.613-1.125,2.664-0.989c0.701,0.09,1.164,0.639,1.164,1.346
		C27.483,15.309,27.487,17.362,27.479,19.417z"/>
	<path fill="#A7A9AB" stroke="#A7A9AB" stroke-width="0.25" stroke-miterlimit="10" d="M23.397,9.897
		c0.82,0.519,1.681,0.556,2.527,0.089c0.944-0.521,1.309-1.384,1.32-2.749c0.048-1.62-1.432-2.535-2.711-2.435
		c-1.068,0.085-1.975,0.87-2.204,1.833C21.998,8.013,22.403,9.272,23.397,9.897z M23.142,6.753c0.211-0.707,0.896-1.166,1.631-1.154
		c0.994,0.017,1.66,0.809,1.658,2.002c0.055,0.765-0.24,1.385-0.951,1.744c-0.599,0.302-1.194,0.229-1.754-0.161
		C23.008,8.684,22.877,7.625,23.142,6.753z"/>
	<path fill="#A7A9AB" stroke="#A7A9AB" stroke-width="0.25" stroke-miterlimit="10" d="M16.369,8.156
		c1.092,0.243,2.248-0.308,2.741-1.346c0.38-0.794,0.394-1.626,0.109-2.456c-0.392-1.146-1.561-1.817-2.75-1.594
		c-1.313,0.248-2.078,1.229-2.08,2.667c0.001,0.095-0.002,0.19,0.002,0.286C14.433,6.906,15.246,7.906,16.369,8.156z M16.144,3.693
		c1.088-0.555,2.397,0.224,2.445,1.447c0.012,0.3,0.027,0.611-0.027,0.903c-0.152,0.814-0.992,1.473-1.749,1.406
		c-0.931-0.084-1.606-0.812-1.616-1.745c-0.002-0.081,0-0.16,0-0.26C15.146,4.678,15.425,4.059,16.144,3.693z"/>
	<path fill="#A7A9AB" stroke="#A7A9AB" stroke-width="0.25" stroke-miterlimit="10" d="M8.296,10.182
		c0.965,0.313,2.074-0.026,2.695-0.827c0.708-0.911,0.764-2.451,0.124-3.414c-0.53-0.799-1.546-1.271-2.372-1.102
		C7.301,5.134,6.551,6.067,6.551,7.566c0,0.097-0.003,0.191,0.001,0.287C6.593,8.92,7.295,9.857,8.296,10.182z M7.359,7.637
		c0-1.258,0.698-2.059,1.723-2.032C9.27,5.609,9.465,5.646,9.638,5.716c0.685,0.276,1.048,0.804,1.114,1.53
		c0.076,0.844-0.094,1.601-0.894,2.056C9.25,9.646,8.633,9.598,8.068,9.187C7.518,8.789,7.3,8.232,7.359,7.637z"/>
	<path fill="#A7A9AB" stroke="#A7A9AB" stroke-width="0.25" stroke-miterlimit="10" d="M12.543,12.544
		c-0.054-0.818,0.213-1.452,0.942-1.843c2.274-1.219,4.549-1.226,6.817,0.007c0.578,0.314,0.949,0.785,0.932,1.49
		c-0.004,0.118,0.037,0.238,0.059,0.35c0.241,0,0.441,0,0.646,0c0.186-0.999-0.108-1.78-0.938-2.333
		c-2.416-1.616-5.799-1.618-8.226,0.002c-0.822,0.548-1.122,1.337-0.923,2.327C12.074,12.544,12.286,12.544,12.543,12.544z"/>
</g>
</svg>
