<?xml version="1.0" encoding="utf-8"?>
<!-- Generator: Adobe Illustrator 16.0.3, SVG Export Plug-In . SVG Version: 6.00 Build 0)  -->
<!DOCTYPE svg PUBLIC "-//W3C//DTD SVG 1.1//EN" "http://www.w3.org/Graphics/SVG/1.1/DTD/svg11.dtd">
<svg version="1.1" id="Layer_1" xmlns="http://www.w3.org/2000/svg" xmlns:xlink="http://www.w3.org/1999/xlink" x="0px" y="0px"
	 width="33.791px" height="30.313px" viewBox="0 0 33.791 30.313" enable-background="new 0 0 33.791 30.313" xml:space="preserve">
<path fill="#A7A9AB" stroke="#A7A9AB" stroke-width="0.25" stroke-miterlimit="10" d="M18.124,11.571c0,0.403,0,0.802,0,1.213
	c0.843-0.461,1.674-0.48,2.436,0.131c0.766,0.612,0.928,1.428,0.651,2.363c0.419,0,0.826-0.002,1.233,0
	c0.599,0.004,1.197-0.017,1.793,0.021c0.902,0.056,1.66,0.75,1.818,1.642c0.151,0.857-0.139,1.555-0.826,2.085
	c-0.02,0.016-0.039,0.028-0.058,0.044c-0.003,0.003-0.004,0.009-0.011,0.023c0.579,0.421,0.924,0.977,0.934,1.713
	c0.008,0.738-0.322,1.302-0.904,1.744c0.342,0.242,0.595,0.545,0.75,0.923c0.518,1.269-0.295,2.646-1.609,2.825
	c-0.135,0.02-0.271,0.027-0.406,0.027c-1.834,0.002-3.666,0.006-5.5-0.002c-0.441-0.004-0.865,0.077-1.296,0.149
	c-1.116,0.188-2.145-0.041-3.066-0.692c-1.017-0.722-1.634-1.703-1.739-2.949c-0.065-0.772-0.022-1.556-0.035-2.331
	c-0.014-0.839,0.11-1.657,0.404-2.44c0.162-0.435,0.376-0.851,0.584-1.266c0.46-0.918,0.713-1.882,0.707-2.912
	c-0.005-0.749-0.004-1.497,0.001-2.246c0-0.119-0.023-0.172-0.155-0.202c-0.654-0.148-1.283-0.372-1.9-0.632
	c-1.505-0.634-2.841-1.532-4.091-2.57C7.619,8.049,7.652,7.79,7.92,7.626c0.525-0.32,1.052-0.64,1.576-0.959
	c1.26-0.769,2.52-1.537,3.779-2.306c0.183-0.11,0.365-0.222,0.548-0.331c0.552-0.33,1.272-0.281,1.774,0.119
	c0.359,0.286,0.725,0.309,1.118,0.064c0.271-0.168,0.535-0.353,0.859-0.415c0.479-0.093,0.896,0.05,1.29,0.313
	c1.631,1.089,3.266,2.173,4.898,3.259c0.135,0.088,0.27,0.174,0.402,0.262c0.251,0.167,0.279,0.378,0.074,0.595
	c-0.52,0.549-1.102,1.027-1.721,1.458c-0.644,0.447-1.324,0.828-2.041,1.144c-0.718,0.313-1.459,0.554-2.228,0.707
	C18.211,11.546,18.169,11.559,18.124,11.571z M17.451,12.13c0-1.119,0.001-2.237,0-3.355c0-0.784-0.625-1.415-1.4-1.413
	c-0.776,0.001-1.398,0.631-1.398,1.416c0,1.635-0.012,3.269,0.004,4.901c0.012,1.307-0.286,2.527-0.919,3.669
	c-0.521,0.945-0.782,1.959-0.783,3.039c0,0.65,0.003,1.302,0,1.953c-0.002,0.477,0.087,0.934,0.265,1.377
	c0.603,1.498,2.268,2.402,3.855,2.102c0.408-0.076,0.824-0.148,1.238-0.151c1.896-0.018,3.793-0.008,5.688-0.008
	c0.068,0,0.137,0.004,0.204-0.007c1.009-0.146,1.541-1.208,1.032-2.092c-0.25-0.436-0.635-0.674-1.16-0.67
	c-1.178,0.008-2.354,0.002-3.529,0c-0.139-0.001-0.24-0.07-0.292-0.202c-0.092-0.238,0.067-0.456,0.341-0.458
	c0.295-0.002,0.592,0.01,0.889,0.009c0.763-0.003,1.525-0.008,2.287-0.014c0.181-0.001,0.363,0.011,0.537-0.023
	c0.508-0.106,0.867-0.412,1.041-0.9c0.174-0.492,0.086-0.957-0.248-1.367c-0.332-0.408-0.793-0.517-1.289-0.521
	c-0.506-0.004-1.012,0.002-1.518,0.007c-0.572,0.005-1.146,0.015-1.721,0.019c-0.221,0-0.362-0.137-0.362-0.334
	c0-0.194,0.146-0.33,0.362-0.332c0.919-0.01,1.838-0.017,2.757-0.028c0.325-0.004,0.653,0.007,0.974-0.037
	c0.637-0.085,1.159-0.741,1.133-1.377c-0.035-0.806-0.644-1.388-1.448-1.388c-2.048,0-4.095,0-6.142,0
	c-0.277,0-0.396-0.12-0.396-0.397C17.451,14.406,17.451,13.268,17.451,12.13z M22.922,7.624c-0.056-0.041-0.073-0.057-0.093-0.069
	c-1.5-0.997-2.999-1.996-4.502-2.988c-0.227-0.148-0.487-0.176-0.739-0.073c-0.169,0.066-0.331,0.163-0.48,0.268
	c-0.584,0.411-1.38,0.361-1.91-0.069c-0.322-0.261-0.682-0.286-1.045-0.077c-0.224,0.127-0.441,0.265-0.661,0.397
	c-1.317,0.803-2.635,1.606-3.953,2.41C9.446,7.479,9.356,7.538,9.246,7.608c0.044,0.011,0.057,0.017,0.07,0.017
	c1.644,0,3.286,0.001,4.93-0.003c0.047,0,0.109-0.038,0.139-0.077c0.834-1.116,2.468-1.135,3.31-0.032
	c0.063,0.083,0.125,0.114,0.228,0.114c1.431-0.003,2.858-0.002,4.287-0.001C22.431,7.624,22.653,7.624,22.922,7.624z M23.169,8.298
	c-1.699,0-3.398,0-5.066,0c0,0.865,0,1.718,0,2.594C20.049,10.48,21.713,9.596,23.169,8.298z M8.988,8.299
	c1.53,1.146,3.138,2.045,5.013,2.497c0-0.847,0-1.669,0-2.497C12.36,8.299,10.695,8.299,8.988,8.299z M18.116,15.254
	c0.021,0.014,0.025,0.019,0.031,0.019c0.742,0.001,1.485,0.004,2.229,0.001c0.037,0,0.088-0.038,0.108-0.072
	c0.139-0.231,0.19-0.483,0.18-0.752c-0.023-0.581-0.428-1.104-0.988-1.272c-0.543-0.164-1.185,0.044-1.514,0.492
	c-0.023,0.033-0.045,0.078-0.045,0.118C18.116,14.276,18.116,14.766,18.116,15.254z"/>
</svg>
