<?xml version="1.0" encoding="utf-8"?>
<!-- Generator: Adobe Illustrator 16.0.3, SVG Export Plug-In . SVG Version: 6.00 Build 0)  -->
<!DOCTYPE svg PUBLIC "-//W3C//DTD SVG 1.1//EN" "http://www.w3.org/Graphics/SVG/1.1/DTD/svg11.dtd">
<svg version="1.1" id="Layer_1" xmlns="http://www.w3.org/2000/svg" xmlns:xlink="http://www.w3.org/1999/xlink" x="0px" y="0px"
	 width="33.791px" height="30.313px" viewBox="0 0 33.791 30.313" enable-background="new 0 0 33.791 30.313" xml:space="preserve">
<g>
	<path fill="#A7A9AB" d="M29.464,21.704c-0.46-0.037-0.926-0.013-1.431-0.013c0-0.292,0-0.506,0-0.718
		c0-4.28-0.009-8.558,0.011-12.837c0.003-0.563-0.172-0.776-0.738-0.75c-0.765,0.035-1.533,0.032-2.297-0.008
		c-0.203-0.01-0.484-0.162-0.58-0.333c-0.947-1.676-2.646-2.191-4.396-1.424c-1.933,0.847-3.928,0.851-5.861-0.005
		c-1.715-0.759-3.499-0.247-4.354,1.386C9.65,7.323,9.462,7.408,9.134,7.401C8.271,7.384,7.406,7.394,6.543,7.396
		c-0.764,0.002-0.784,0.024-0.785,0.8c0,4.26,0,8.52,0,12.778c0,0.228,0,0.453,0,0.718c-0.417,0-0.751-0.029-1.077,0.01
		c-0.352,0.042-0.695,0.149-1.042,0.229c0,0.196,0,0.394,0,0.589c0.311,1.198,0.96,2.1,2.218,2.407
		c0.375,0.092,0.778,0.089,1.168,0.09c6.521,0.004,13.041-0.023,19.561,0.021c1.724,0.012,3.046-0.56,3.567-2.52
		c0-0.195,0-0.393,0-0.589C29.924,21.852,29.698,21.722,29.464,21.704z M10.382,7.783c0.567-1.673,1.983-2.106,3.6-1.335
		c0.519,0.247,1.112,0.446,1.679,0.466c1.189,0.039,2.385-0.022,3.57-0.116c0.41-0.032,0.814-0.26,1.201-0.441
		c1.256-0.591,2.617-0.183,3.215,0.983c0.764,1.486,1.922,6.249,2.031,7.954c-0.141,0.683-0.216,1.389-0.438,2.044
		c-0.231,0.683-0.599,0.747-1.058,0.199c-0.703-0.838-1.383-1.704-1.992-2.611c-0.57-0.849-1.334-1.238-2.317-1.244
		c-1.822-0.014-3.646-0.014-5.469-0.005c-1.052,0.005-1.865,0.416-2.449,1.341c-0.512,0.81-1.111,1.564-1.713,2.312
		c-0.194,0.241-0.628,0.59-0.759,0.521c-0.284-0.149-0.537-0.507-0.64-0.831c-0.387-1.208-0.315-2.451-0.014-3.657
		C9.297,11.488,9.765,9.609,10.382,7.783z M6.634,8.235c0.856,0,1.728,0,2.633,0c-0.365,1.393-0.752,2.758-1.081,4.137
		c-0.369,1.552-0.575,3.122-0.187,4.708c0.065,0.264,0.161,0.526,0.29,0.766c0.534,0.992,1.404,1.182,2.195,0.384
		c0.656-0.663,1.279-1.398,1.743-2.204c0.653-1.127,1.545-1.646,2.82-1.61c1.686,0.045,3.373,0.059,5.06,0.102
		c0.59,0.017,1.021,0.322,1.354,0.81c0.51,0.743,1.038,1.473,1.578,2.195c0.197,0.267,0.429,0.516,0.677,0.733
		c0.835,0.735,1.736,0.59,2.19-0.424c0.259-0.575,0.408-1.229,0.462-1.859c0.192-2.255-0.528-4.368-1.112-6.499
		C25.147,9.08,25.04,8.69,24.912,8.23c0.813,0,1.532,0,2.272,0c0,4.487,0,8.938,0,13.423c-6.851,0-13.677,0-20.552,0
		C6.634,17.204,6.634,12.741,6.634,8.235z M27.616,24.165c-0.192,0.028-0.391,0.042-0.586,0.042
		c-6.752,0.003-13.501-0.001-20.252,0.005c-0.774,0.002-1.429-0.232-1.892-0.871c-0.154-0.213-0.248-0.469-0.421-0.807
		c8.33,0,16.511,0,24.69,0C29.179,23.262,28.444,24.039,27.616,24.165z"/>
	<path fill="#A7A9AB" d="M21.122,11.996c1.033-0.014,1.845-0.836,1.848-1.876c0.004-1.08-0.804-1.88-1.888-1.874
		c-1.028,0.006-1.875,0.843-1.872,1.852C19.212,11.131,20.097,12.008,21.122,11.996z M21.078,9.067
		c0.625-0.01,1.069,0.428,1.067,1.052c-0.002,0.567-0.467,1.052-1.022,1.065s-1.093-0.515-1.093-1.08
		C20.028,9.555,20.513,9.077,21.078,9.067z"/>
	<path fill="#A7A9AB" d="M12.487,11.523c0.293,0,0.534,0,0.829,0c0-0.418,0-0.801,0-1.257c0.451,0,0.85,0,1.275,0
		c-0.014-0.302-0.023-0.525-0.034-0.77c-0.233-0.011-0.406-0.022-0.58-0.025c-0.195-0.004-0.39-0.001-0.693-0.001
		c0-0.45,0-0.829,0-1.197c-0.299,0-0.525,0-0.822,0c0,0.41,0,0.791,0,1.229c-0.451,0-0.833,0-1.21,0c0,0.287,0,0.511,0,0.754
		c0.422,0.019,0.804,0.037,1.235,0.057C12.487,10.746,12.487,11.129,12.487,11.523z"/>
</g>
</svg>
