<?xml version="1.0" encoding="utf-8"?>
<!-- Generator: Adobe Illustrator 16.0.3, SVG Export Plug-In . SVG Version: 6.00 Build 0)  -->
<!DOCTYPE svg PUBLIC "-//W3C//DTD SVG 1.1//EN" "http://www.w3.org/Graphics/SVG/1.1/DTD/svg11.dtd">
<svg version="1.1" id="Layer_1" xmlns="http://www.w3.org/2000/svg" xmlns:xlink="http://www.w3.org/1999/xlink" x="0px" y="0px"
	 width="33.791px" height="30.313px" viewBox="0 0 33.791 30.313" enable-background="new 0 0 33.791 30.313" xml:space="preserve">
<g>
	<path fill="#A7A9AB" stroke="#A7A9AB" stroke-width="0.5" stroke-miterlimit="10" d="M8.413,9.228
		c0.119,0.05,0.276,0.01,0.416,0.01c2.313,0,4.627,0,6.938,0c0.206,0,0.411,0,0.631,0c0,3.03,0,5.993,0,8.992
		c-1.146,0-2.246,0-3.367,0c0,0.183,0,0.326,0,0.523c1.139,0,2.252,0,3.377,0c0,1.637,0,3.219,0,4.771
		c-0.569,0.242-1.494-0.346-1.62,0.817c1.313,0,2.583,0,3.898,0c-0.055-1.222-1.088-0.506-1.545-0.82c0-1.595,0-3.178,0-4.793
		c1.125,0,2.208,0,3.31,0c0-0.178,0-0.321,0-0.5c-1.113,0-2.195,0-3.316,0c0-3.037,0-6.003,0-8.99c0.738,0,1.439,0,2.14,0
		c1.979,0,3.959,0.016,5.939-0.017c0.268-0.004,0.629-0.172,0.773-0.382c0.205-0.295,0.037-0.631-0.258-0.864
		c-0.508-0.399-0.978-0.856-1.517-1.205c-3.295-2.113-6.871-2.585-10.646-1.725c-2.134,0.487-4.035,1.447-5.586,3.019
		C7.814,8.236,7.736,8.617,7.8,8.85C7.847,9.022,8.186,9.132,8.413,9.228z M17.583,5.298c3.529,0.191,6.732,1.894,7.637,3.243
		C19.661,8.54,14.102,8.54,8.527,8.54C10.123,6.581,13.964,5.103,17.583,5.298z"/>
	<path fill="#A7A9AB" stroke="#A7A9AB" stroke-width="0.5" stroke-miterlimit="10" d="M27.267,25.242c-6.938,0-13.844,0-20.766,0
		c0,0.15,0,0.271,0,0.432c6.948,0,13.855,0,20.79,0C27.282,25.516,27.272,25.385,27.267,25.242z"/>
	<path fill="#A7A9AB" stroke="#A7A9AB" stroke-width="0.5" stroke-miterlimit="10" d="M25.278,16.381
		c-0.373-0.217-0.529-0.111-0.615,0.258c-0.258,1.115-0.572,2.221-0.797,3.344c-0.092,0.458-0.285,0.543-0.699,0.533
		c-1.133-0.025-2.268-0.01-3.438-0.01c0.01,0.211,0.018,0.358,0.022,0.508c0.267,0.019,0.488,0.033,0.771,0.053
		c-0.276,1.159-0.543,2.279-0.809,3.394c0.418,0.166,0.553-0.025,0.629-0.345c0.207-0.897,0.412-1.795,0.652-2.684
		c0.041-0.154,0.234-0.37,0.367-0.377c0.768-0.035,1.537-0.018,2.324-0.018c0.26,1.046,0.537,2.051,0.754,3.068
		c0.086,0.405,0.256,0.487,0.635,0.362c-0.197-0.797-0.363-1.595-0.598-2.373c-0.254-0.844-0.248-1.655-0.002-2.502
		C24.786,18.531,25.015,17.448,25.278,16.381z"/>
	<path fill="#A7A9AB" stroke="#A7A9AB" stroke-width="0.5" stroke-miterlimit="10" d="M8.224,24.459
		c0.429,0.175,0.549-0.027,0.622-0.347c0.213-0.913,0.428-1.827,0.676-2.731c0.039-0.141,0.256-0.321,0.399-0.329
		c0.646-0.036,1.296-0.035,1.942,0.001c0.142,0.007,0.356,0.184,0.396,0.324c0.26,0.919,0.509,1.844,0.699,2.779
		c0.076,0.379,0.247,0.403,0.616,0.326c-0.275-1.15-0.544-2.271-0.819-3.421c0.283-0.02,0.505-0.035,0.765-0.055
		c-0.011-0.176-0.02-0.32-0.03-0.505c-1.331,0-2.622,0-3.937,0c-0.351-1.429-0.691-2.823-1.031-4.21
		c-0.41-0.074-0.55,0.045-0.437,0.444c0.164,0.587,0.274,1.188,0.446,1.771c0.424,1.432,0.688,2.85,0.087,4.313
		C8.406,23.338,8.349,23.918,8.224,24.459z"/>
</g>
</svg>
