<?xml version="1.0" encoding="utf-8"?>
<!-- Generator: Adobe Illustrator 16.0.3, SVG Export Plug-In . SVG Version: 6.00 Build 0)  -->
<!DOCTYPE svg PUBLIC "-//W3C//DTD SVG 1.1//EN" "http://www.w3.org/Graphics/SVG/1.1/DTD/svg11.dtd">
<svg version="1.1" id="Layer_1" xmlns="http://www.w3.org/2000/svg" xmlns:xlink="http://www.w3.org/1999/xlink" x="0px" y="0px"
	 width="33.791px" height="30.313px" viewBox="0 0 33.791 30.313" enable-background="new 0 0 33.791 30.313" xml:space="preserve">
<g>
	<path fill="#A7A9AB" d="M22.897,19.339c0.117-0.03,0.218-0.063,0.318-0.083c1.213-0.223,1.983-0.949,2.244-2.133
		c0.154-0.69,0.188-1.416,0.198-2.127c0.008-0.615-0.562-1.146-1.183-1.194c-0.276-0.021-0.557-0.014-0.834-0.015
		c-0.729-0.003-0.729-0.001-0.731-0.733c-0.002-0.518-0.146-0.67-0.653-0.671c-3.877-0.003-7.755-0.003-11.633-0.003
		c-0.51,0-0.655,0.147-0.656,0.666c-0.002,1.979-0.006,3.958,0.006,5.935c0.002,0.315,0.052,0.637,0.123,0.943
		c0.237,1.044,0.806,1.89,1.648,2.594c-0.063,0.033-0.073,0.044-0.084,0.044c-0.995,0.005-1.991,0.005-2.986,0.013
		c-0.408,0.003-0.551,0.147-0.543,0.556c0.003,0.143,0.024,0.29,0.063,0.428c0.347,1.25,1.671,2.225,3.112,2.23
		c3.4,0.016,6.799,0.005,10.199,0.004c0.935-0.001,1.729-0.351,2.409-0.978c0.462-0.426,0.764-0.942,0.837-1.58
		c0.054-0.448-0.112-0.656-0.556-0.664c-0.397-0.006-0.797-0.001-1.194-0.001c-0.604,0-1.206,0-1.935,0
		C22.144,21.662,22.748,20.623,22.897,19.339z M22.937,14.698c0.478,0,0.926-0.014,1.373,0.005c0.299,0.012,0.48,0.218,0.45,0.501
		c-0.075,0.681-0.129,1.375-0.313,2.029c-0.198,0.709-0.803,1.085-1.51,1.094C22.937,17.128,22.937,15.93,22.937,14.698z
		 M23.696,23.516c-0.465,0.93-1.239,1.346-2.17,1.354c-3.383,0.031-6.768,0.015-10.151,0.009c-0.809-0.002-1.95-0.566-2.135-1.363
		C14.042,23.516,18.834,23.516,23.696,23.516z M18.313,22.569c-1.246,0.016-2.495,0.014-3.742-0.003
		c-2.059-0.027-3.646-1.617-3.664-3.673c-0.016-1.739-0.007-3.478-0.008-5.216c0-0.103,0.012-0.206,0.02-0.331
		c3.689,0,7.356,0,11.021,0c0,2.05,0.106,4.061-0.033,6.05C21.776,21.232,20.16,22.547,18.313,22.569z"/>
	<path fill="#A7A9AB" d="M14.584,11.005c0.34,0.007,0.484-0.215,0.486-0.546c0.001-0.186,0.013-0.371,0.037-0.554
		c0.104-0.784,0.616-1.295,1.184-1.771c0.923-0.776,1.519-1.727,1.608-3.015c-0.107-0.181-0.176-0.421-0.334-0.527
		c-0.315-0.21-0.655,0.052-0.66,0.497C16.9,5.982,16.563,6.704,15.867,7.27c-0.276,0.227-0.53,0.481-0.776,0.741
		c-0.641,0.676-0.929,1.499-0.961,2.417C14.118,10.745,14.231,10.998,14.584,11.005z"/>
	<path fill="#A7A9AB" d="M17.787,11.472c0.305,0.028,0.471-0.153,0.5-0.609c0.032-0.511,0.246-0.908,0.642-1.226
		c0.176-0.14,0.334-0.303,0.491-0.464c0.472-0.491,0.688-1.09,0.724-1.76c0.017-0.297-0.092-0.529-0.424-0.561
		c-0.285-0.024-0.502,0.135-0.49,0.402c0.037,0.784-0.396,1.271-0.944,1.734c-0.562,0.47-0.876,1.087-0.901,1.649
		C17.367,11.247,17.492,11.444,17.787,11.472z"/>
</g>
</svg>
