<?xml version="1.0" encoding="utf-8"?>
<!-- Generator: Adobe Illustrator 16.0.3, SVG Export Plug-In . SVG Version: 6.00 Build 0)  -->
<!DOCTYPE svg PUBLIC "-//W3C//DTD SVG 1.1//EN" "http://www.w3.org/Graphics/SVG/1.1/DTD/svg11.dtd">
<svg version="1.1" id="Layer_1" xmlns="http://www.w3.org/2000/svg" xmlns:xlink="http://www.w3.org/1999/xlink" x="0px" y="0px"
	 width="68.439px" height="68.439px" viewBox="0 0 68.439 68.439" enable-background="new 0 0 68.439 68.439" xml:space="preserve">
<path fill="#FFFFFF" d="M15.937,29.646v10.58c0,5.769,1.83,9.616,5.489,11.546c1.642,0.933,6.921,1.275,15.838,1.031
	c6.832,0,10.758-0.743,11.776-2.229c2.308-1.842,3.461-4.892,3.461-9.149v-13.61c0-5.366-1.896-8.884-5.688-10.547l-2.529-0.832
	l-2.561-0.199H26.917c-5.278,0-8.806,2.573-10.58,7.72C16.07,25.531,15.937,27.428,15.937,29.646z M27.515,19.498h14.208
	c5.145,0,7.719,2.706,7.719,8.118v14.405c-0.688,5.015-2.785,7.521-6.289,7.521h-5.889c-2.751,0-5.657,0.065-8.718,0.199
	c-5.103,0-8.085-1.618-8.949-4.857c-0.268-1.797-0.399-4.502-0.399-8.118v-4.491c0-6.766,0.543-10.147,1.63-10.147
	C21.915,20.374,24.144,19.498,27.515,19.498z M24.887,34.736c0,4.37,2.506,7.408,7.52,9.116h4.059
	c4.857-1.752,7.287-4.856,7.287-9.315v-0.434c0-2.527-1.287-4.891-3.858-7.087c-1.754-1.219-3.572-1.829-5.458-1.829h-0.199
	c-4.192,0-7.109,2.162-8.751,6.487C25.264,31.964,25.064,32.984,24.887,34.736z M34.237,28.414h0.199
	c2.928,0,4.891,1.563,5.889,4.69c0.133,0.179,0.199,0.655,0.199,1.432c-0.644,4.191-2.672,6.289-6.088,6.289
	c-2.706,0-4.669-1.354-5.89-4.061c-0.178-0.222-0.321-0.897-0.433-2.029C28.602,30.522,30.643,28.414,34.237,28.414z M41.923,24.987
	c0.599,1.354,1.353,2.029,2.263,2.029s1.651-0.676,2.229-2.029c-0.311-1.641-1.131-2.462-2.461-2.462
	C42.599,22.948,41.923,23.768,41.923,24.987z"/>
</svg>
