<?xml version="1.0" encoding="utf-8"?>
<!-- Generator: Adobe Illustrator 16.0.3, SVG Export Plug-In . SVG Version: 6.00 Build 0)  -->
<!DOCTYPE svg PUBLIC "-//W3C//DTD SVG 1.1//EN" "http://www.w3.org/Graphics/SVG/1.1/DTD/svg11.dtd">
<svg version="1.1" id="Layer_1" xmlns="http://www.w3.org/2000/svg" xmlns:xlink="http://www.w3.org/1999/xlink" x="0px" y="0px"
	 width="187.255px" height="41.377px" viewBox="0 0 187.255 41.377" enable-background="new 0 0 187.255 41.377"
	 xml:space="preserve">
<g>
	<path fill="#FFFFFF" d="M131.434,19.42h-6.045c-1.042,0-1.745,0.167-2.105,0.496s-0.544,0.878-0.544,1.646v0.653h9.753
		c0.273,0,0.409-0.136,0.409-0.41v-1.011c0-0.496-0.104-0.852-0.313-1.061S131.993,19.42,131.434,19.42z"/>
	<path fill="#FFFFFF" d="M70.367,24.681c-0.204,0.201-0.304,0.494-0.304,0.878v0.507c0,0.434,0.1,0.753,0.304,0.951
		c0.198,0.201,0.548,0.3,1.045,0.3h8.113c0.257,0,0.439-0.06,0.544-0.18s0.156-0.334,0.156-0.638v-2.118h-8.813
		C70.915,24.381,70.565,24.483,70.367,24.681z"/>
	<path fill="#FFFFFF" d="M14.559,24.681c-0.201,0.201-0.3,0.494-0.3,0.878v0.507c0,0.434,0.099,0.753,0.3,0.951
		c0.201,0.201,0.551,0.3,1.048,0.3h8.114c0.256,0,0.437-0.06,0.541-0.18s0.157-0.334,0.157-0.638v-2.118h-8.812
		C15.11,24.381,14.76,24.483,14.559,24.681z"/>
	<path fill="#FFFFFF" d="M169.93,19.42h-6.045c-1.043,0-1.745,0.167-2.105,0.496s-0.541,0.878-0.541,1.646v0.653h9.749
		c0.272,0,0.41-0.136,0.41-0.41v-1.011c0-0.496-0.104-0.852-0.313-1.061S170.488,19.42,169.93,19.42z"/>
	<path fill="#FFFFFF" d="M0,0v41.377h187.255V0H0z M16.447,10.319h2.122c0.319,0,0.569,0.188,0.745,0.554l2.191,4.457
		c0.079,0.177,0.084,0.313,0.011,0.407c-0.071,0.097-0.204,0.146-0.397,0.146h-1.805c-0.191,0-0.342-0.05-0.447-0.146
		c-0.104-0.094-0.204-0.23-0.298-0.407l-2.482-4.457c-0.094-0.175-0.104-0.311-0.023-0.407S16.272,10.319,16.447,10.319z
		 M27.861,28.041c0,0.385-0.029,0.7-0.086,0.951c-0.055,0.248-0.152,0.444-0.288,0.591c-0.136,0.144-0.319,0.245-0.543,0.298
		c-0.225,0.058-0.512,0.086-0.865,0.086h-11.46c-0.705,0-1.295-0.068-1.771-0.206c-0.47-0.136-0.852-0.34-1.142-0.611
		s-0.494-0.627-0.614-1.061s-0.18-0.946-0.18-1.542v-1.154c0-0.496,0.06-0.943,0.18-1.338c0.12-0.392,0.324-0.726,0.614-0.998
		c0.29-0.271,0.671-0.475,1.142-0.613c0.476-0.136,1.066-0.207,1.771-0.207h9.799v-0.454c0-0.387-0.04-0.716-0.12-0.987
		c-0.081-0.271-0.217-0.494-0.41-0.664c-0.193-0.167-0.458-0.292-0.794-0.37c-0.337-0.084-0.771-0.121-1.301-0.121H11.729
		c-0.287,0-0.434-0.146-0.434-0.434v-2.021c0-0.293,0.146-0.434,0.434-0.434h10.402c1.074,0,1.98,0.091,2.72,0.276
		c0.739,0.184,1.327,0.471,1.769,0.865s0.757,0.901,0.951,1.518s0.29,1.358,0.29,2.226V28.041z M64.142,29.436
		c0,0.355-0.186,0.53-0.554,0.53h-2.456c-0.353,0-0.53-0.175-0.53-0.53V16.871c0-0.162-0.063-0.24-0.193-0.24h-0.214
		c-0.162,0-0.267,0.063-0.313,0.19l-4.864,10.786c-0.193,0.434-0.39,0.8-0.591,1.095c-0.198,0.298-0.418,0.541-0.647,0.734
		c-0.235,0.193-0.499,0.329-0.794,0.41c-0.298,0.081-0.648,0.12-1.051,0.12h-1.154c-0.402,0-0.75-0.039-1.045-0.12
		c-0.298-0.081-0.564-0.217-0.797-0.41s-0.449-0.437-0.65-0.734c-0.198-0.295-0.397-0.661-0.591-1.095l-4.861-10.786
		c-0.05-0.128-0.154-0.19-0.313-0.19h-0.217c-0.128,0-0.193,0.078-0.193,0.24v12.565c0,0.355-0.175,0.53-0.527,0.53h-2.456
		c-0.371,0-0.554-0.175-0.554-0.53V15.617c0-0.914,0.144-1.56,0.434-1.938c0.287-0.376,0.857-0.564,1.709-0.564h2.622
		c0.355,0,0.659,0.023,0.915,0.073c0.258,0.047,0.483,0.141,0.676,0.277c0.191,0.136,0.363,0.318,0.518,0.554
		c0.151,0.229,0.309,0.54,0.468,0.925L50.926,26.5c0.063,0.144,0.175,0.217,0.334,0.217h0.29c0.159,0,0.274-0.073,0.337-0.217
		l5.008-11.557c0.16-0.385,0.316-0.695,0.471-0.925c0.151-0.235,0.326-0.418,0.518-0.554c0.19-0.137,0.412-0.23,0.66-0.277
		c0.251-0.05,0.552-0.073,0.904-0.073h2.576c0.836,0,1.395,0.188,1.688,0.564c0.287,0.379,0.431,1.024,0.431,1.938V29.436z
		 M83.669,28.041c0,0.385-0.031,0.7-0.086,0.951c-0.055,0.248-0.154,0.444-0.29,0.591c-0.136,0.144-0.316,0.245-0.541,0.298
		c-0.225,0.058-0.515,0.086-0.864,0.086H70.424c-0.705,0-1.295-0.068-1.768-0.206c-0.474-0.136-0.854-0.34-1.143-0.611
		c-0.289-0.271-0.496-0.627-0.616-1.061s-0.178-0.946-0.178-1.542v-1.154c0-0.496,0.058-0.943,0.178-1.338
		c0.12-0.392,0.327-0.726,0.616-0.998c0.288-0.271,0.669-0.475,1.143-0.613c0.473-0.136,1.063-0.207,1.768-0.207h9.802v-0.454
		c0-0.387-0.041-0.716-0.12-0.987c-0.083-0.271-0.219-0.494-0.41-0.664c-0.193-0.167-0.457-0.292-0.797-0.37
		c-0.334-0.084-0.768-0.121-1.298-0.121H67.535c-0.287,0-0.432-0.146-0.432-0.434v-2.021c0-0.293,0.145-0.434,0.432-0.434h10.402
		c1.076,0,1.98,0.091,2.722,0.276c0.737,0.184,1.327,0.471,1.769,0.865c0.442,0.395,0.758,0.901,0.951,1.518
		c0.19,0.616,0.29,1.358,0.29,2.226V28.041z M99.074,19.206c0,0.288-0.144,0.434-0.431,0.434h-6.406
		c-0.515,0-0.94,0.042-1.274,0.131c-0.34,0.089-0.606,0.232-0.81,0.434c-0.199,0.201-0.34,0.473-0.418,0.82
		c-0.084,0.345-0.12,0.763-0.12,1.262v7.15c0,0.355-0.178,0.53-0.533,0.53h-2.356c-0.371,0-0.554-0.175-0.554-0.53v-7.801
		c0-0.867,0.094-1.609,0.287-2.226s0.51-1.123,0.951-1.518s1.026-0.682,1.758-0.865c0.729-0.186,1.641-0.276,2.732-0.276h6.743
		c0.287,0,0.431,0.141,0.431,0.434V19.206z M117.254,26.596c0,0.53-0.065,1.003-0.193,1.419c-0.131,0.418-0.343,0.773-0.638,1.061
		c-0.298,0.287-0.687,0.509-1.17,0.663c-0.481,0.151-1.074,0.228-1.782,0.228h-12.325c-0.287,0-0.434-0.144-0.434-0.434v-1.926
		c0-0.29,0.146-0.434,0.434-0.434h11.411c0.496,0,0.847-0.089,1.048-0.267c0.201-0.175,0.3-0.47,0.3-0.888v-0.653
		c0-0.318-0.099-0.569-0.3-0.744s-0.552-0.264-1.048-0.264h-8.088c-1.348,0-2.312-0.277-2.89-0.831
		c-0.579-0.554-0.867-1.361-0.867-2.419v-1.061c0-0.496,0.063-0.951,0.193-1.358c0.128-0.413,0.34-0.761,0.638-1.051
		c0.298-0.287,0.685-0.507,1.168-0.66c0.483-0.154,1.073-0.228,1.781-0.228h11.748c0.29,0,0.434,0.141,0.434,0.434v1.923
		c0,0.29-0.144,0.434-0.434,0.434h-10.857c-0.496,0-0.841,0.094-1.034,0.276c-0.193,0.186-0.29,0.455-0.29,0.808v0.363
		c0,0.318,0.097,0.572,0.29,0.758c0.193,0.183,0.538,0.276,1.034,0.276h8.114c1.348,0,2.31,0.282,2.89,0.841
		c0.577,0.564,0.867,1.359,0.867,2.383V26.596z M136.271,22.984c0,0.515-0.112,0.872-0.337,1.07
		c-0.225,0.204-0.572,0.304-1.037,0.304h-12.158v0.577c0,0.755,0.184,1.298,0.544,1.638c0.36,0.334,1.063,0.504,2.105,0.504h10.042
		c0.287,0,0.431,0.145,0.431,0.434v2.022c0,0.29-0.144,0.434-0.431,0.434h-10.376c-1.093,0-2.004-0.086-2.735-0.264
		c-0.729-0.178-1.314-0.463-1.759-0.857c-0.438-0.392-0.757-0.898-0.95-1.515s-0.288-1.361-0.288-2.226v-3.47
		c0-0.867,0.095-1.609,0.288-2.226s0.512-1.123,0.95-1.518c0.444-0.395,1.029-0.682,1.759-0.865
		c0.731-0.186,1.643-0.276,2.735-0.276h7.053c0.818,0,1.494,0.067,2.032,0.203c0.539,0.137,0.965,0.361,1.278,0.675
		c0.311,0.313,0.532,0.721,0.66,1.228c0.131,0.507,0.193,1.118,0.193,1.842V22.984z M142.291,29.436c0,0.355-0.178,0.53-0.53,0.53
		h-2.359c-0.353,0-0.527-0.175-0.527-0.53V17.304c0-0.371,0.175-0.554,0.527-0.554h2.359c0.353,0,0.53,0.183,0.53,0.554V29.436z
		 M142.291,14.678c0,0.369-0.178,0.555-0.53,0.555h-2.359c-0.371,0-0.554-0.186-0.554-0.555v-2.285c0-0.355,0.183-0.533,0.554-0.533
		h2.359c0.353,0,0.53,0.178,0.53,0.533V14.678z M148.79,29.436c0,0.355-0.178,0.53-0.53,0.53h-2.358
		c-0.353,0-0.528-0.175-0.528-0.53V12.44c0-0.355,0.176-0.53,0.528-0.53h2.358c0.353,0,0.53,0.175,0.53,0.53V29.436z M155.29,29.436
		c0,0.355-0.178,0.53-0.53,0.53H152.4c-0.353,0-0.53-0.175-0.53-0.53V12.44c0-0.355,0.178-0.53,0.53-0.53h2.359
		c0.353,0,0.53,0.175,0.53,0.53V29.436z M174.768,22.984c0,0.515-0.112,0.872-0.337,1.07c-0.225,0.204-0.569,0.304-1.034,0.304
		h-12.158v0.577c0,0.755,0.181,1.298,0.541,1.638c0.36,0.334,1.063,0.504,2.105,0.504h10.039c0.29,0,0.434,0.145,0.434,0.434v2.022
		c0,0.29-0.144,0.434-0.434,0.434h-10.376c-1.092,0-2.001-0.086-2.732-0.264c-0.729-0.178-1.317-0.463-1.759-0.857
		c-0.441-0.392-0.758-0.898-0.95-1.515c-0.191-0.616-0.288-1.361-0.288-2.226v-3.47c0-0.867,0.097-1.609,0.288-2.226
		c0.192-0.616,0.509-1.123,0.95-1.518s1.029-0.682,1.759-0.865c0.731-0.186,1.641-0.276,2.732-0.276h7.056
		c0.817,0,1.494,0.067,2.032,0.203c0.538,0.137,0.964,0.361,1.277,0.675s0.533,0.721,0.661,1.228s0.193,1.118,0.193,1.842V22.984z"
		/>
</g>
</svg>
