<?xml version="1.0" encoding="utf-8"?>
<!-- Generator: Adobe Illustrator 16.0.3, SVG Export Plug-In . SVG Version: 6.00 Build 0)  -->
<!DOCTYPE svg PUBLIC "-//W3C//DTD SVG 1.1//EN" "http://www.w3.org/Graphics/SVG/1.1/DTD/svg11.dtd">
<svg version="1.1" id="Layer_1" xmlns="http://www.w3.org/2000/svg" xmlns:xlink="http://www.w3.org/1999/xlink" x="0px" y="0px"
	 width="208.831px" height="33.381px" viewBox="0 0 208.831 33.381" enable-background="new 0 0 208.831 33.381"
	 xml:space="preserve">
<g>
	<path fill="#FFFFFF" d="M75.003,18.649c-0.192,0.192-0.287,0.472-0.287,0.841v0.482c0,0.414,0.095,0.716,0.287,0.908
		s0.527,0.287,1.001,0.287h7.754c0.245,0,0.417-0.058,0.517-0.172c0.1-0.115,0.15-0.317,0.15-0.609v-2.024h-8.421
		C75.53,18.362,75.195,18.457,75.003,18.649z"/>
	<path fill="#FFFFFF" d="M35.65,13.624h-5.777c-0.996,0-1.668,0.154-2.012,0.469c-0.345,0.314-0.52,0.839-0.52,1.578v0.619h9.319
		c0.262,0,0.392-0.13,0.392-0.39v-0.969c0-0.475-0.1-0.812-0.299-1.011C36.554,13.724,36.185,13.624,35.65,13.624z"/>
	<path fill="#FFFFFF" d="M127.412,18.649c-0.189,0.192-0.285,0.472-0.285,0.841v0.482c0,0.414,0.095,0.716,0.285,0.908
		c0.195,0.192,0.527,0.287,1.004,0.287h7.754c0.245,0,0.415-0.058,0.514-0.172c0.1-0.115,0.15-0.317,0.15-0.609v-2.024h-8.418
		C127.939,18.362,127.607,18.457,127.412,18.649z"/>
	<path fill="#FFFFFF" d="M0,0v33.381h208.831V0H0z M22.741,13.414c0,0.277-0.137,0.414-0.412,0.414h-6.122
		c-0.492,0-0.899,0.045-1.218,0.128c-0.325,0.085-0.579,0.222-0.774,0.414c-0.19,0.192-0.325,0.452-0.399,0.781
		c-0.08,0.33-0.115,0.734-0.115,1.208v6.833c0,0.338-0.169,0.507-0.509,0.507H10.94c-0.354,0-0.529-0.169-0.529-0.507V15.74
		c0-0.828,0.09-1.537,0.274-2.129s0.487-1.073,0.909-1.45c0.422-0.375,0.981-0.652,1.68-0.829c0.697-0.175,1.568-0.265,2.611-0.265
		h6.444c0.274,0,0.412,0.14,0.412,0.414V13.414z M40.274,17.029c0,0.489-0.107,0.828-0.322,1.023
		c-0.214,0.189-0.546,0.284-0.991,0.284H27.342v0.555c0,0.719,0.175,1.243,0.52,1.563c0.344,0.324,1.016,0.484,2.012,0.484h9.596
		c0.275,0,0.412,0.14,0.412,0.414v1.933c0,0.274-0.137,0.414-0.412,0.414h-9.916c-1.043,0-1.915-0.085-2.614-0.254
		c-0.697-0.168-1.256-0.439-1.68-0.814c-0.419-0.377-0.724-0.858-0.909-1.45s-0.275-1.301-0.275-2.13V15.74
		c0-0.828,0.09-1.537,0.275-2.129s0.489-1.073,0.909-1.45c0.424-0.375,0.983-0.652,1.68-0.829c0.699-0.175,1.57-0.265,2.614-0.265
		h6.741c0.781,0,1.428,0.064,1.942,0.197c0.514,0.13,0.921,0.345,1.221,0.644c0.297,0.298,0.509,0.691,0.631,1.174
		c0.125,0.481,0.185,1.071,0.185,1.76V17.029z M58.264,20.479c0,0.504-0.06,0.958-0.185,1.357c-0.12,0.399-0.325,0.734-0.609,1.012
		c-0.285,0.276-0.654,0.486-1.113,0.631c-0.462,0.147-1.029,0.22-1.703,0.22H42.873c-0.277,0-0.414-0.14-0.414-0.414v-1.84
		c0-0.277,0.137-0.414,0.414-0.414H53.78c0.475,0,0.809-0.085,0.999-0.253c0.192-0.169,0.29-0.454,0.29-0.854v-0.619
		c0-0.307-0.098-0.544-0.29-0.714c-0.189-0.17-0.524-0.255-0.999-0.255h-7.734c-1.289,0-2.207-0.265-2.759-0.794
		c-0.552-0.526-0.829-1.298-0.829-2.312v-1.011c0-0.478,0.062-0.909,0.182-1.301c0.125-0.39,0.327-0.725,0.611-0.999
		c0.282-0.277,0.657-0.489,1.116-0.634s1.028-0.22,1.703-0.22H57.3c0.275,0,0.412,0.14,0.412,0.414v1.843
		c0,0.274-0.137,0.414-0.412,0.414H46.922c-0.477,0-0.806,0.088-0.991,0.265c-0.183,0.175-0.275,0.432-0.275,0.77v0.344
		c0,0.31,0.092,0.55,0.275,0.725c0.185,0.18,0.514,0.265,0.991,0.265h7.752c1.291,0,2.212,0.27,2.761,0.809
		c0.554,0.534,0.829,1.293,0.829,2.276V20.479z M70.16,23.285c0,0.274-0.137,0.414-0.415,0.414h-2.784
		c-0.918,0-1.68-0.085-2.277-0.254c-0.599-0.168-1.078-0.435-1.438-0.805c-0.362-0.369-0.609-0.844-0.749-1.428
		c-0.14-0.582-0.208-1.278-0.208-2.092v-5.338h-2.185c-0.277,0-0.414-0.14-0.414-0.414v-1.888c0-0.274,0.137-0.414,0.414-0.414
		h2.185V8.031c0-0.337,0.167-0.507,0.507-0.507h2.277c0.339,0,0.507,0.17,0.507,0.507v3.036h4.027c0.274,0,0.415,0.14,0.415,0.414
		v1.888c0,0.274-0.14,0.414-0.415,0.414h-4.027v5.338c0,0.644,0.13,1.116,0.392,1.415c0.259,0.298,0.774,0.447,1.54,0.447h2.232
		c0.277,0,0.415,0.14,0.415,0.414V23.285z M87.715,21.857c0,0.369-0.028,0.674-0.083,0.911c-0.053,0.237-0.145,0.424-0.275,0.562
		c-0.129,0.14-0.304,0.234-0.519,0.29c-0.215,0.055-0.489,0.079-0.826,0.079H75.06c-0.674,0-1.238-0.064-1.692-0.194
		c-0.449-0.13-0.814-0.327-1.091-0.589c-0.277-0.26-0.472-0.597-0.587-1.012c-0.115-0.412-0.172-0.906-0.172-1.47v-1.106
		c0-0.477,0.058-0.901,0.172-1.275c0.115-0.377,0.31-0.694,0.587-0.956c0.277-0.263,0.642-0.457,1.091-0.587
		c0.454-0.13,1.019-0.195,1.692-0.195h9.365v-0.439c0-0.366-0.038-0.681-0.115-0.943c-0.078-0.26-0.208-0.469-0.392-0.629
		c-0.185-0.162-0.437-0.282-0.759-0.359c-0.322-0.075-0.737-0.115-1.244-0.115h-9.616c-0.275,0-0.415-0.137-0.415-0.414v-1.933
		c0-0.274,0.14-0.414,0.415-0.414h9.941c1.026,0,1.893,0.09,2.599,0.265c0.707,0.177,1.269,0.454,1.69,0.829
		c0.422,0.377,0.724,0.858,0.909,1.45s0.277,1.301,0.277,2.129V21.857z M107.478,19.051c0,0.829-0.092,1.538-0.277,2.13
		c-0.185,0.592-0.484,1.073-0.909,1.45c-0.419,0.375-0.983,0.646-1.69,0.814c-0.707,0.169-1.573,0.254-2.599,0.254h-6.421
		c-1.043,0-1.912-0.085-2.611-0.254c-0.699-0.168-1.258-0.439-1.678-0.814c-0.424-0.377-0.724-0.858-0.909-1.45
		c-0.185-0.592-0.277-1.301-0.277-2.13v-7.454c0-0.353,0.177-0.529,0.529-0.529h2.254c0.337,0,0.506,0.177,0.506,0.529v6.65
		c0,0.489,0.03,0.896,0.093,1.219c0.06,0.324,0.174,0.579,0.344,0.771c0.17,0.191,0.404,0.329,0.714,0.414
		c0.305,0.082,0.714,0.127,1.219,0.127h5.912c0.509,0,0.921-0.045,1.243-0.127c0.325-0.085,0.579-0.223,0.771-0.414
		c0.192-0.192,0.327-0.447,0.402-0.771c0.078-0.322,0.115-0.729,0.115-1.219v-6.65c0-0.353,0.17-0.529,0.507-0.529h2.254
		c0.339,0,0.507,0.177,0.507,0.529V19.051z M122.594,13.414c0,0.277-0.137,0.414-0.414,0.414h-6.119
		c-0.492,0-0.896,0.045-1.221,0.128c-0.32,0.085-0.579,0.222-0.769,0.414c-0.192,0.192-0.327,0.452-0.404,0.781
		c-0.075,0.33-0.115,0.734-0.115,1.208v6.833c0,0.338-0.17,0.507-0.504,0.507h-2.257c-0.352,0-0.529-0.169-0.529-0.507V15.74
		c0-0.828,0.095-1.537,0.277-2.129c0.185-0.592,0.487-1.073,0.909-1.45c0.422-0.375,0.981-0.652,1.68-0.829
		c0.699-0.175,1.568-0.265,2.611-0.265h6.441c0.277,0,0.414,0.14,0.414,0.414V13.414z M140.125,21.857
		c0,0.369-0.025,0.674-0.08,0.911c-0.055,0.237-0.145,0.424-0.274,0.562c-0.13,0.14-0.305,0.234-0.52,0.29
		c-0.214,0.055-0.489,0.079-0.829,0.079h-10.95c-0.677,0-1.238-0.064-1.693-0.194c-0.452-0.13-0.816-0.327-1.093-0.589
		c-0.274-0.26-0.469-0.597-0.584-1.012c-0.115-0.412-0.175-0.906-0.175-1.47v-1.106c0-0.477,0.06-0.901,0.175-1.275
		c0.115-0.377,0.31-0.694,0.584-0.956c0.277-0.263,0.642-0.457,1.093-0.587c0.455-0.13,1.016-0.195,1.693-0.195h9.362v-0.439
		c0-0.366-0.038-0.681-0.115-0.943c-0.075-0.26-0.205-0.469-0.39-0.629c-0.185-0.162-0.439-0.282-0.759-0.359
		c-0.325-0.075-0.739-0.115-1.243-0.115h-9.617c-0.277,0-0.415-0.137-0.415-0.414v-1.933c0-0.274,0.138-0.414,0.415-0.414h9.938
		c1.026,0,1.895,0.09,2.599,0.265c0.707,0.177,1.268,0.454,1.692,0.829c0.419,0.377,0.724,0.858,0.909,1.45
		c0.185,0.592,0.275,1.301,0.275,2.129V21.857z M151.998,23.285c0,0.274-0.14,0.414-0.415,0.414H148.8
		c-0.921,0-1.68-0.085-2.279-0.254c-0.597-0.168-1.076-0.435-1.438-0.805c-0.359-0.369-0.609-0.844-0.747-1.428
		c-0.137-0.582-0.207-1.278-0.207-2.092v-5.338h-2.187c-0.274,0-0.415-0.14-0.415-0.414v-1.888c0-0.274,0.14-0.414,0.415-0.414
		h2.187V8.031c0-0.337,0.17-0.507,0.507-0.507h2.277c0.337,0,0.507,0.17,0.507,0.507v3.036h4.027c0.277,0,0.412,0.14,0.412,0.414
		v1.888c0,0.274-0.135,0.414-0.412,0.414h-4.027v5.338c0,0.644,0.13,1.116,0.389,1.415c0.262,0.298,0.776,0.447,1.543,0.447h2.232
		c0.274,0,0.415,0.14,0.415,0.414V23.285z M157.151,23.192c0,0.338-0.17,0.507-0.507,0.507h-2.254c-0.337,0-0.504-0.169-0.504-0.507
		V11.597c0-0.353,0.167-0.529,0.504-0.529h2.254c0.337,0,0.507,0.177,0.507,0.529V23.192z M157.151,9.09
		c0,0.353-0.17,0.529-0.507,0.529h-2.254c-0.354,0-0.529-0.177-0.529-0.529V6.903c0-0.337,0.175-0.505,0.529-0.505h2.254
		c0.337,0,0.507,0.168,0.507,0.505V9.09z M177.33,19.051c0,0.829-0.093,1.538-0.277,2.13s-0.486,1.073-0.908,1.45
		c-0.422,0.375-0.986,0.646-1.693,0.814c-0.704,0.169-1.57,0.254-2.599,0.254h-6.511c-1.043,0-1.915-0.085-2.611-0.254
		c-0.697-0.168-1.258-0.439-1.68-0.814c-0.422-0.377-0.724-0.858-0.909-1.45s-0.275-1.301-0.275-2.13V15.74
		c0-0.828,0.09-1.537,0.275-2.129s0.487-1.073,0.909-1.45c0.422-0.375,0.983-0.652,1.68-0.829c0.696-0.175,1.568-0.265,2.611-0.265
		h6.511c1.028,0,1.895,0.09,2.599,0.265c0.707,0.177,1.271,0.454,1.693,0.829c0.422,0.377,0.724,0.858,0.908,1.45
		s0.277,1.301,0.277,2.129V19.051z M197.529,23.192c0,0.338-0.17,0.507-0.507,0.507h-2.254c-0.337,0-0.507-0.169-0.507-0.507V16.52
		c0-0.475-0.03-0.876-0.093-1.206c-0.06-0.332-0.18-0.592-0.356-0.781c-0.175-0.194-0.417-0.329-0.725-0.414
		c-0.307-0.085-0.706-0.128-1.195-0.128h-6.122c-0.489,0-0.896,0.043-1.218,0.128s-0.579,0.22-0.771,0.414
		c-0.192,0.189-0.325,0.449-0.402,0.781c-0.077,0.33-0.114,0.731-0.114,1.206v6.673c0,0.338-0.17,0.507-0.507,0.507h-2.255
		c-0.352,0-0.529-0.169-0.529-0.507V15.74c0-0.828,0.093-1.537,0.277-2.129c0.183-0.592,0.487-1.073,0.909-1.45
		c0.419-0.375,0.98-0.652,1.677-0.829c0.699-0.175,1.568-0.265,2.611-0.265h6.604c1.028,0,1.896,0.09,2.602,0.265
		c0.704,0.177,1.269,0.454,1.69,0.829c0.422,0.377,0.724,0.858,0.908,1.45s0.277,1.301,0.277,2.129V23.192z"/>
	<path fill="#FFFFFF" d="M173.543,14.313c-0.189-0.199-0.447-0.337-0.77-0.414c-0.321-0.075-0.736-0.115-1.243-0.115h-5.866
		c-0.49,0-0.899,0.04-1.219,0.115c-0.324,0.077-0.579,0.215-0.771,0.414c-0.192,0.2-0.327,0.46-0.402,0.781
		c-0.077,0.322-0.115,0.722-0.115,1.196v2.187c0,0.489,0.038,0.899,0.115,1.219c0.075,0.324,0.21,0.579,0.402,0.771
		c0.192,0.192,0.447,0.332,0.771,0.414c0.32,0.085,0.729,0.128,1.219,0.128h5.866c0.507,0,0.922-0.043,1.243-0.128
		c0.322-0.082,0.58-0.222,0.77-0.414c0.194-0.192,0.327-0.447,0.404-0.771c0.075-0.319,0.115-0.729,0.115-1.219V16.29
		c0-0.475-0.04-0.874-0.115-1.196C173.87,14.772,173.737,14.513,173.543,14.313z"/>
</g>
</svg>
