<?xml version="1.0" encoding="utf-8"?>
<!-- Generator: Adobe Illustrator 16.0.3, SVG Export Plug-In . SVG Version: 6.00 Build 0)  -->
<!DOCTYPE svg PUBLIC "-//W3C//DTD SVG 1.1//EN" "http://www.w3.org/Graphics/SVG/1.1/DTD/svg11.dtd">
<svg version="1.1" id="Layer_1" xmlns="http://www.w3.org/2000/svg" xmlns:xlink="http://www.w3.org/1999/xlink" x="0px" y="0px"
	 width="198.031px" height="64.028px" viewBox="0 0 198.031 64.028" enable-background="new 0 0 198.031 64.028"
	 xml:space="preserve">
<g>
	<path fill="#414042" d="M73.325,0c1.49,0,2.548,0.304,3.172,0.915c0.624,0.611,0.937,1.571,0.937,2.88v26.486
		c0,0.656-0.329,0.984-0.984,0.984h-4.599c-0.655,0-0.984-0.328-0.984-0.984V6.878c0-0.626-0.309-0.94-0.937-0.94h-2.544
		c-0.688,0-1.031-0.326-1.031-0.982V0.981C66.356,0.327,66.698,0,67.387,0H73.325z"/>
	<path fill="#414042" d="M123.682,40.536c0.655,0,0.98,0.329,0.98,0.984v21.528c0,0.651-0.326,0.98-0.98,0.98h-4.827
		c-0.682,0-1.024-0.329-1.024-0.98V41.52c0-0.655,0.342-0.984,1.024-0.984H123.682z"/>
	<path fill="#414042" d="M123.682,32.762c0.655,0,0.98,0.329,0.98,0.987v4.3c0,0.655-0.326,0.983-0.98,0.983h-4.827
		c-0.682,0-1.024-0.329-1.024-0.983v-4.3c0-0.658,0.342-0.987,1.024-0.987H123.682z"/>
	<path fill="#414042" d="M158.645,32.762c2.353,0,3.528,1.135,3.528,3.397v4.062c0,0.537-0.037,0.994-0.107,1.363
		c-0.078,0.376-0.198,0.702-0.359,0.987c-0.165,0.282-0.386,0.524-0.671,0.732c-0.279,0.211-0.648,0.437-1.091,0.671l-23.629,12.461
		c-0.269,0.151-0.403,0.373-0.403,0.671v0.312c0,0.269,0.151,0.403,0.446,0.403h24.519c0.688,0,1.03,0.329,1.03,0.983v4.243
		c0,0.651-0.342,0.98-1.03,0.98H131.98c-1.249,0-2.152-0.275-2.702-0.826c-0.551-0.551-0.823-1.39-0.823-2.524v-4.062
		c0-0.537,0.027-0.994,0.087-1.363c0.057-0.376,0.161-0.698,0.312-0.98c0.151-0.286,0.359-0.531,0.628-0.739
		c0.265-0.208,0.621-0.43,1.071-0.671l23.539-12.504c0.266-0.151,0.4-0.373,0.4-0.671v-0.312c0-0.269-0.148-0.403-0.447-0.403
		h-24.297c-0.685,0-1.027-0.329-1.027-0.98v-4.243c0-0.658,0.343-0.987,1.027-0.987H158.645z"/>
	<path fill="#414042" d="M197.008,32.762c0.681,0,1.023,0.329,1.023,0.987v4.243c0,0.651-0.343,0.98-1.023,0.98h-19.521
		c-1.162,0-2.122,0.097-2.881,0.292c-0.762,0.191-1.369,0.52-1.833,0.983c-0.46,0.463-0.782,1.087-0.956,1.873
		c-0.182,0.789-0.272,1.766-0.272,2.927v0.443h25.237c0.655,0,0.98,0.329,0.98,0.987v3.528c0,0.654-0.325,0.983-0.98,0.983h-25.237
		v0.759c0,1.161,0.091,2.135,0.272,2.924c0.174,0.789,0.496,1.413,0.956,1.876c0.464,0.463,1.071,0.786,1.833,0.983
		c0.759,0.191,1.719,0.289,2.881,0.289h19.521c0.681,0,1.023,0.329,1.023,0.983v4.243c0,0.651-0.343,0.98-1.023,0.98h-19.655
		c-2.263,0-4.183-0.205-5.761-0.625c-1.578-0.416-2.867-1.094-3.863-2.034c-0.997-0.937-1.729-2.155-2.186-3.659
		c-0.463-1.504-0.695-3.33-0.695-5.472v-7.684c0-2.146,0.231-3.958,0.695-5.448c0.457-1.487,1.188-2.699,2.186-3.639
		c0.997-0.94,2.286-1.625,3.863-2.054c1.578-0.433,3.498-0.651,5.761-0.651H197.008z"/>
	<path fill="#414042" d="M35.909,32.762c0.685,0,1.031,0.329,1.031,0.987v4.377c0,0.685-0.346,1.027-1.031,1.027H21.887v23.895
		c0,0.651-0.329,0.98-0.984,0.98h-4.871c-0.655,0-0.98-0.329-0.98-0.98V39.153H1.027C0.342,39.153,0,38.811,0,38.126v-4.377
		c0-0.658,0.342-0.987,1.027-0.987H35.909z"/>
	<path fill="#414042" d="M66.235,32.762c3.427,0,5.881,0.779,7.368,2.326c1.491,1.548,2.236,3.837,2.236,6.878v2.544
		c0,2.565-0.521,4.585-1.564,6.076c-1.041,1.487-2.739,2.44-5.089,2.856l7.634,9.47c0.151,0.148,0.194,0.37,0.134,0.672
		c-0.061,0.295-0.295,0.443-0.712,0.443h-5.764c-0.386,0-0.655-0.044-0.806-0.135c-0.148-0.087-0.295-0.234-0.447-0.443
		l-7.056-9.292H47.749v8.889c0,0.651-0.332,0.98-0.983,0.98h-4.827c-0.685,0-1.027-0.329-1.027-0.98V34.104
		c0-0.893,0.446-1.343,1.339-1.343H66.235z M47.749,48.707h17.104c1.518,0,2.588-0.326,3.216-0.98
		c0.624-0.651,0.937-1.651,0.937-2.994v-1.873c0-1.343-0.313-2.336-0.937-2.995c-0.628-0.651-1.699-0.98-3.216-0.98H48.326
		c-0.39,0-0.578,0.174-0.578,0.537V48.707z"/>
	<path fill="#414042" d="M112.238,57.821H92.725c-1.165,0-2.122-0.098-2.883-0.289c-0.762-0.198-1.37-0.52-1.83-0.983
		c-0.463-0.463-0.782-1.088-0.96-1.876c-0.181-0.789-0.269-1.763-0.269-2.924V50.99h25.234c0.654,0,0.983-0.329,0.983-0.983v-3.528
		c0-0.658-0.329-0.987-0.983-0.987H86.783v-0.443c0-1.161,0.087-2.138,0.269-2.927c0.178-0.786,0.497-1.41,0.96-1.873
		c0.46-0.463,1.067-0.792,1.83-0.983c0.762-0.195,1.719-0.292,2.883-0.292h0.661h10.967h0.715c1.457,0,2.696-0.188,3.706-0.558
		c1.014-0.376,1.833-0.91,2.458-1.604c0.627-0.702,1.071-1.547,1.339-2.541s0.403-2.112,0.403-3.354v-2.703
		c0-2.73-0.954-4.733-2.86-6.007c1.756-1.367,2.635-3.339,2.635-5.915v-2.236c0-2.576-0.645-4.503-1.94-5.777
		c-1.296-1.271-3.478-1.907-6.546-1.907H81.13c-0.655,0-0.983,0.341-0.983,1.022v4.146c0,0.685,0.329,1.024,0.983,1.024h21.84
		c1.188,0,2.047,0.227,2.568,0.678c0.521,0.45,0.779,1.171,0.779,2.164v1.631c0,0.901-0.269,1.589-0.802,2.071
		c-0.534,0.483-1.548,0.722-3.038,0.722H81.395c-0.681,0-1.027,0.342-1.027,1.024v3.308c0,0.683,0.346,1.024,1.027,1.024h21.082
		c1.49,0,2.511,0.257,3.062,0.771c0.55,0.512,0.826,1.249,0.826,2.212v1.722c0,0.994-0.258,1.724-0.782,2.19
		c-0.48,0.426-1.245,0.648-2.266,0.682H92.59c-2.266,0-4.186,0.218-5.764,0.651c-1.581,0.43-2.867,1.114-3.864,2.054
		s-1.729,2.152-2.189,3.639c-0.463,1.49-0.691,3.303-0.691,5.448v7.684c0,2.142,0.228,3.968,0.691,5.472
		c0.46,1.504,1.192,2.722,2.189,3.659c0.997,0.94,2.283,1.618,3.864,2.034c1.578,0.42,3.498,0.625,5.764,0.625h19.648
		c0.685,0,1.031-0.329,1.031-0.98v-4.243C113.269,58.15,112.923,57.821,112.238,57.821z"/>
	<g>
		<rect x="80.083" y="19.537" fill="#939598" width="7.929" height="6.267"/>
		<path fill="#414042" d="M97.273,26.04c0,0.421-0.346,0.762-0.766,0.762H87.78c-0.423,0-0.765-0.34-0.765-0.762v-6.737
			c0-0.42,0.342-0.762,0.765-0.762h8.728c0.42,0,0.766,0.342,0.766,0.762V26.04z"/>
		<rect x="82.033" y="20.782" fill="#FFFFFF" width="1.33" height="1.328"/>
		<rect x="82.033" y="23.065" fill="#FFFFFF" width="1.33" height="1.328"/>
	</g>
	<g>
		<rect x="105.931" y="45.263" fill="#939598" width="7.933" height="6.271"/>
		<path fill="#414042" d="M96.672,45.028c0-0.419,0.342-0.762,0.766-0.762h8.731c0.42,0,0.759,0.343,0.759,0.762v6.734
			c0,0.423-0.339,0.766-0.759,0.766h-8.731c-0.423,0-0.766-0.343-0.766-0.766V45.028z"/>
		<rect x="110.583" y="48.959" fill="#FFFFFF" width="1.329" height="1.326"/>
		<rect x="110.583" y="46.673" fill="#FFFFFF" width="1.329" height="1.329"/>
	</g>
</g>
</svg>
