<?xml version="1.0" encoding="utf-8"?>
<!-- Generator: Adobe Illustrator 16.0.3, SVG Export Plug-In . SVG Version: 6.00 Build 0)  -->
<!DOCTYPE svg PUBLIC "-//W3C//DTD SVG 1.1//EN" "http://www.w3.org/Graphics/SVG/1.1/DTD/svg11.dtd">
<svg version="1.1" id="Layer_1" xmlns="http://www.w3.org/2000/svg" xmlns:xlink="http://www.w3.org/1999/xlink" x="0px" y="0px"
	 width="183.278px" height="70.904px" viewBox="0 0 183.278 70.904" enable-background="new 0 0 183.278 70.904"
	 xml:space="preserve">
<g>
	<path fill="#FFFFFF" d="M60.757,41.402H46.648c-0.333,0-0.493,0.155-0.493,0.459v7.933h14.602c1.295,0,2.21-0.281,2.746-0.84
		c0.533-0.559,0.8-1.41,0.8-2.553v-1.605c0-1.141-0.267-1.995-0.8-2.551C62.967,41.684,62.053,41.402,60.757,41.402z"/>
	<path fill="#FFFFFF" d="M0,0v70.904h183.278V0H0z M36.927,40.755c0,0.587-0.295,0.88-0.88,0.88H24.077v20.396
		c0,0.562-0.281,0.843-0.84,0.843h-4.158c-0.559,0-0.837-0.281-0.837-0.843V41.635H6.268c-0.584,0-0.877-0.292-0.877-0.88v-3.737
		c0-0.556,0.292-0.837,0.877-0.837h29.78c0.585,0,0.88,0.281,0.88,0.837V40.755z M70.481,62.874h-4.921
		c-0.33,0-0.559-0.04-0.688-0.114c-0.126-0.078-0.252-0.207-0.381-0.385l-6.024-7.93H46.156v7.586c0,0.562-0.284,0.843-0.84,0.843
		h-4.121c-0.585,0-0.877-0.281-0.877-0.843V37.324c0-0.762,0.381-1.144,1.144-1.144h20.477c2.926,0,5.021,0.662,6.291,1.983
		c1.272,1.318,1.909,3.279,1.909,5.87v2.175c0,2.187-0.444,3.915-1.335,5.188c-0.889,1.27-2.339,2.083-4.345,2.439l6.517,8.082
		c0.129,0.129,0.166,0.32,0.114,0.573C71.038,62.745,70.837,62.874,70.481,62.874z M71.499,34.06c0,0.56-0.281,0.838-0.84,0.838
		h-3.926c-0.559,0-0.84-0.278-0.84-0.838V14.08c0-0.534-0.264-0.802-0.799-0.802h-2.172c-0.588,0-0.88-0.278-0.88-0.838V9.046
		c0-0.559,0.292-0.838,0.88-0.838h5.07c1.272,0,2.175,0.259,2.708,0.781c0.533,0.521,0.8,1.341,0.8,2.459V34.06z M102.6,52.201
		h-5.921v0.201c0,0.361-0.289,0.653-0.647,0.653h-7.454c-0.361,0-0.654-0.292-0.654-0.653v-0.665H79.48v0.647
		c0,0.992,0.075,1.826,0.229,2.499c0.152,0.676,0.424,1.209,0.819,1.599c0.393,0.396,0.912,0.676,1.562,0.843
		c0.65,0.166,1.467,0.247,2.462,0.247h16.66c0.584,0,0.88,0.281,0.88,0.839v3.62c0,0.562-0.295,0.843-0.88,0.843H84.438
		c-1.935,0-3.574-0.178-4.921-0.536c-1.35-0.355-2.447-0.935-3.298-1.733c-0.851-0.803-1.476-1.846-1.869-3.13
		c-0.396-1.284-0.59-2.837-0.59-4.671v-6.557c0-1.829,0.195-3.382,0.59-4.648c0.393-1.272,1.018-2.31,1.869-3.113
		c0.851-0.796,1.949-1.384,3.298-1.754c1.347-0.367,2.986-0.55,4.921-0.55h9.157c0.871-0.028,1.524-0.221,1.935-0.584
		c0.447-0.398,0.667-1.021,0.667-1.87v-1.47c0-0.822-0.235-1.452-0.705-1.889c-0.47-0.438-1.341-0.658-2.613-0.658h-4.442v0.729
		c0,0.36-0.295,0.65-0.653,0.65h-7.452c-0.361,0-0.653-0.291-0.653-0.65v-0.201H73.76v-5.351h5.918v-0.201
		c0-0.358,0.292-0.65,0.653-0.65h7.452c0.358,0,0.653,0.292,0.653,0.65v0.45h4.442c1.272,0,2.138-0.204,2.593-0.616
		c0.456-0.412,0.685-0.999,0.685-1.769V21.36c0-0.847-0.221-1.463-0.665-1.847c-0.444-0.386-1.178-0.579-2.192-0.579H74.654
		c-0.559,0-0.84-0.289-0.84-0.874v-3.54c0-0.582,0.281-0.873,0.84-0.873h19.749c2.62,0,4.482,0.543,5.588,1.628
		c1.106,1.088,1.657,2.732,1.657,4.932v1.909c0,2.2-0.751,3.883-2.25,5.05c1.628,1.088,2.442,2.797,2.442,5.129v2.307
		c0,1.062-0.115,2.015-0.344,2.863c-0.229,0.848-0.607,1.57-1.144,2.167c-0.533,0.596-1.232,1.055-2.098,1.373
		c-0.863,0.318-1.92,0.479-3.164,0.479h-0.61h-9.363h-0.564c-0.995,0-1.812,0.08-2.462,0.247c-0.65,0.166-1.169,0.444-1.562,0.836
		c-0.396,0.396-0.667,0.929-0.819,1.605c-0.155,0.671-0.229,1.502-0.229,2.494v0.384h8.443V46.65c0-0.358,0.292-0.65,0.654-0.65
		h7.454c0.358,0,0.647,0.292,0.647,0.65v0.198h5.921V52.201z M111.819,62.031c0,0.562-0.278,0.843-0.836,0.843h-4.122
		c-0.582,0-0.874-0.281-0.874-0.843V43.655c0-0.562,0.292-0.84,0.874-0.84h4.122c0.559,0,0.836,0.278,0.836,0.84V62.031z
		 M111.819,40.692c0,0.562-0.278,0.84-0.836,0.84h-4.122c-0.582,0-0.874-0.278-0.874-0.84v-3.674c0-0.556,0.292-0.837,0.874-0.837
		h4.122c0.559,0,0.836,0.281,0.836,0.837V40.692z M143.843,42.549c0,0.458-0.032,0.843-0.092,1.164
		c-0.066,0.315-0.169,0.596-0.307,0.837c-0.14,0.241-0.33,0.453-0.573,0.63c-0.238,0.178-0.553,0.367-0.931,0.57l-20.173,10.641
		c-0.229,0.126-0.344,0.315-0.344,0.57v0.267c0,0.229,0.129,0.344,0.381,0.344h20.933c0.587,0,0.879,0.281,0.879,0.839v3.62
		c0,0.562-0.292,0.843-0.879,0.843h-24.67c-1.066,0-1.837-0.235-2.307-0.708c-0.47-0.47-0.702-1.189-0.702-2.155v-3.468
		c0-0.456,0.023-0.845,0.074-1.163c0.049-0.318,0.138-0.599,0.267-0.84s0.307-0.45,0.536-0.628c0.227-0.178,0.53-0.37,0.914-0.573
		l20.096-10.675c0.227-0.126,0.341-0.321,0.341-0.573v-0.27c0-0.223-0.126-0.338-0.381-0.338h-20.743
		c-0.585,0-0.877-0.281-0.877-0.84v-3.625c0-0.556,0.292-0.837,0.877-0.837h24.669c2.009,0,3.012,0.966,3.012,2.897V42.549z
		 M174.457,40.643c0,0.559-0.292,0.84-0.874,0.84h-16.665c-0.992,0-1.812,0.08-2.459,0.247c-0.651,0.166-1.169,0.444-1.565,0.836
		c-0.393,0.396-0.668,0.929-0.817,1.605c-0.155,0.671-0.232,1.502-0.232,2.494v0.384h21.546c0.56,0,0.837,0.281,0.837,0.837V50.9
		c0,0.556-0.277,0.837-0.837,0.837h-21.546v0.647c0,0.992,0.078,1.826,0.232,2.499c0.149,0.676,0.424,1.209,0.817,1.599
		c0.396,0.396,0.914,0.676,1.565,0.843c0.647,0.166,1.467,0.247,2.459,0.247h16.665c0.582,0,0.874,0.281,0.874,0.839v3.62
		c0,0.562-0.292,0.843-0.874,0.843h-16.78c-1.932,0-3.571-0.178-4.917-0.536c-1.347-0.355-2.448-0.935-3.299-1.733
		c-0.851-0.803-1.476-1.846-1.866-3.13c-0.396-1.284-0.593-2.837-0.593-4.671v-6.557c0-1.829,0.198-3.382,0.593-4.648
		c0.39-1.272,1.015-2.31,1.866-3.113c0.851-0.796,1.952-1.384,3.299-1.754c1.347-0.367,2.986-0.55,4.917-0.55h16.78
		c0.582,0,0.874,0.281,0.874,0.837V40.643z"/>
</g>
</svg>
